<svg width="25" height="25" viewBox="0 0 25 25" fill="none" xmlns="http://www.w3.org/2000/svg">
<path d="M12.5 0C7.32969 0 3.125 4.20469 3.125 9.375C3.125 15.8734 11.5875 24.4109 11.9469 24.7719C12.1 24.9234 12.3 25 12.5 25C12.7 25 12.9 24.9234 13.0531 24.7719C13.4125 24.4109 21.875 15.8734 21.875 9.375C21.875 4.20469 17.6703 0 12.5 0Z" fill="#3C54CF"/>
<path d="M8.76791 4.09463C8.73971 4.14835 8.10794 5.49903 7.35829 7.09789L6 10.004V12.5007V15H12.5489H19.0978V12.4981V9.99879L17.6959 7.00581L16.2941 4.0127L12.554 4.00508L8.81389 4L8.76791 4.09463ZM16.954 7.28714C17.5706 8.69409 18.0746 9.84789 18.0746 9.85043C18.0746 9.85551 17.8341 9.85805 17.5373 9.85805H17V8.92437V7.99322L16.6496 7.9856L16.2966 7.97798L16.289 7.16445L16.2839 6.35346H15.9385H15.5932V5.76513V5.1768H12.5489H9.50473V5.76513V6.35346H9.15937H8.81402L8.80894 7.16445L8.80132 7.97798L8.45089 7.9856L8.09792 7.99322V8.92437V9.85818H7.54541C7.11304 9.85818 6.99543 9.85057 7.00559 9.82491C7.01321 9.80954 7.50959 8.6993 8.11075 7.36399C8.71191 6.02615 9.22606 4.88517 9.25173 4.82369L9.29784 4.71624L12.5647 4.72131L15.8315 4.72893L16.954 7.28714ZM15.1198 5.99527V6.34063H12.5489H9.97798L9.97037 6.02347C9.96783 5.84692 9.97037 5.68841 9.97544 5.6705C9.98574 5.64244 10.459 5.63722 12.5541 5.64244L15.1199 5.65005V5.99527H15.1198ZM15.8233 7.40235V7.99068H12.5489H9.27445V7.40235V6.81402H12.5489H15.8233V7.40235ZM16.514 9.15465V9.85818H15.4677H14.424L14.4061 10.0476C14.3549 10.6001 14.1069 10.9762 13.6387 11.2012C13.2882 11.3675 13.0862 11.4059 12.5361 11.4033C12.1907 11.4033 12.0295 11.393 11.8965 11.3599C11.1445 11.1757 10.7556 10.7511 10.6917 10.0476L10.6738 9.85818H9.63009H8.58374V9.15465V8.45111H12.5489H16.514V9.15465ZM14.2015 12.4649C14.401 12.5545 14.4727 12.7847 14.3576 12.9561C14.2373 13.1402 14.3039 13.1326 12.549 13.1326C10.7942 13.1326 10.8606 13.1402 10.7405 12.9561C10.6254 12.7847 10.697 12.5545 10.8966 12.4649C10.9963 12.4215 11.0961 12.4163 12.5492 12.4163C14.0019 12.4163 14.1016 12.4215 14.2015 12.4649Z" fill="white"/>
</svg>
