<svg width="25" height="25" viewBox="0 0 25 25" fill="none" xmlns="http://www.w3.org/2000/svg">
<path d="M12.5 0C7.32969 0 3.125 4.20469 3.125 9.375C3.125 15.8734 11.5875 24.4109 11.9469 24.7719C12.1 24.9234 12.3 25 12.5 25C12.7 25 12.9 24.9234 13.0531 24.7719C13.4125 24.4109 21.875 15.8734 21.875 9.375C21.875 4.20469 17.6703 0 12.5 0Z" fill="#F91F00"/>
<path d="M13.0578 13.3275L7.05108 13.3259L6.5 13.3275C6.74923 11.8103 7.78529 10.5439 9.0348 10.1196C8.51951 9.78445 8.17766 9.20685 8.17766 8.54842C8.17766 7.51614 9.01965 6.67584 10.0536 6.67584C11.0876 6.67584 11.9296 7.51614 11.9296 8.54842C11.9296 9.20517 11.5877 9.78445 11.0741 10.1179C12.3236 10.5422 13.2508 11.8086 13.5 13.3275H13.0578Z" fill="white"/>
<path d="M20 9H14V8H20V9Z" fill="white"/>
<path d="M18 11H14V10H18V11Z" fill="white"/>
<path d="M14 12V13H18V12H14Z" fill="white"/>
</svg>
