<svg width="25" height="25" viewBox="0 0 25 25" fill="none" xmlns="http://www.w3.org/2000/svg">
<path d="M12.5 0C7.32969 0 3.125 4.20469 3.125 9.375C3.125 15.8734 11.5875 24.4109 11.9469 24.7719C12.1 24.9234 12.3 25 12.5 25C12.7 25 12.9 24.9234 13.0531 24.7719C13.4125 24.4109 21.875 15.8734 21.875 9.375C21.875 4.20469 17.6703 0 12.5 0Z" fill="#0DA01B"/>
<path d="M17.2278 11.9499C17.2224 11.9526 17.2171 11.9552 17.2105 11.9565C16.3682 12.2988 15.2499 12.1396 14.3717 11.5957C13.1924 10.8661 11.9243 10.6738 10.9228 11.2137C10.9002 11.2256 10.879 11.2376 10.8564 11.2495C10.7954 11.2787 10.7251 11.2946 10.6508 11.2946C10.4479 11.2946 10.2728 11.1699 10.2024 10.9948L10.1772 10.9179L8.90643 6.83878L8.87194 6.72602C8.86 6.67694 8.85469 6.6252 8.85469 6.57214C8.85469 6.31878 8.98735 6.09724 9.18898 5.9699C9.21418 5.95531 9.24071 5.94071 9.26724 5.92612H9.26857C10.2688 5.40082 11.6271 5.64888 12.7242 6.31082C13.7549 6.93163 14.8878 7.23143 15.7367 6.87194L15.7381 6.87327C15.8017 6.84276 15.872 6.82551 15.9477 6.82551C16.1652 6.82551 16.3483 6.96745 16.4093 7.16112L17.6257 11.0611L17.6377 11.1036C17.6549 11.1646 17.6642 11.2283 17.6642 11.2933C17.6642 11.5864 17.4838 11.8398 17.2278 11.9499Z" fill="white"/>
<path d="M10.8034 15.9507L10.7782 15.9587C10.5142 16.0316 10.2383 15.8844 10.1587 15.6244L7.35837 6.65439C7.27612 6.39041 7.42602 6.11051 7.69265 6.02959C7.95929 5.94867 8.24184 6.09592 8.32541 6.3599L11.1257 15.3312C11.2066 15.5899 11.0634 15.8645 10.8034 15.9507Z" fill="white"/>
</svg>
