<svg width="25" height="25" viewBox="0 0 25 25" fill="none" xmlns="http://www.w3.org/2000/svg">
<path d="M12.5 0C7.32969 0 3.125 4.20469 3.125 9.375C3.125 15.8734 11.5875 24.4109 11.9469 24.7719C12.1 24.9234 12.3 25 12.5 25C12.7 25 12.9 24.9234 13.0531 24.7719C13.4125 24.4109 21.875 15.8734 21.875 9.375C21.875 4.20469 17.6703 0 12.5 0Z" fill="#E84A06"/>
<path d="M12.5 0C7.32969 0 3.125 4.20469 3.125 9.375C3.125 15.8734 11.5875 24.4109 11.9469 24.7719C12.1 24.9234 12.3 25 12.5 25C12.7 25 12.9 24.9234 13.0531 24.7719C13.4125 24.4109 21.875 15.8734 21.875 9.375C21.875 4.20469 17.6703 0 12.5 0Z" fill="#05A759"/>
<path d="M8.31818 5.04181C8.18102 5.11177 8.1582 5.19987 8.1582 5.6842V6.11414H12.4999H16.8417V5.6842C16.8417 5.34751 16.8341 5.23614 16.8011 5.16875C16.7172 4.98741 17.0372 5.0004 12.4948 5.0004C8.82863 5.00027 8.39194 5.00554 8.31818 5.04181Z" fill="white"/>
<path d="M6.15998 6.69682C6.00504 6.76422 6 6.79277 6 7.77186C6 8.75608 6.00252 8.77949 6.16502 8.84946C6.29701 8.90386 18.7029 8.90386 18.835 8.84946C18.9975 8.77949 19 8.75622 19 7.77186C19 6.78749 18.9975 6.76422 18.835 6.69425C18.7055 6.63985 6.28441 6.64242 6.15998 6.69682Z" fill="white"/>
<path d="M7.62487 12.3566C7.62487 15.6047 7.61465 15.4054 7.78989 15.4805C7.86351 15.5116 8.17325 15.5167 9.64345 15.5167H11.4081V13.4316C11.4081 11.1445 11.4031 11.2092 11.5579 11.1289C11.6721 11.0668 13.3276 11.0668 13.4418 11.1289C13.5968 11.2092 13.5916 11.1445 13.5916 13.4316V15.5167H15.3563C16.8265 15.5167 17.1361 15.5116 17.2098 15.4805C17.3851 15.4054 17.3749 15.6048 17.3749 12.3566V9.42962H12.4999H7.62487V12.3566ZM10.7098 10.0098C10.8774 10.0823 10.8774 10.0719 10.8698 11.4006L10.8623 12.5948L10.7784 12.6699L10.6971 12.745H9.80595C8.83599 12.745 8.80813 12.7398 8.74459 12.5973C8.72682 12.5559 8.7166 12.1467 8.7166 11.3514C8.7166 10.0433 8.71156 10.0847 8.8791 10.0096C8.99597 9.95793 10.5854 9.95793 10.7098 10.0098ZM16.2094 10.072L16.283 10.155V11.3464C16.283 12.1675 16.2754 12.5561 16.2551 12.6C16.2399 12.6337 16.1916 12.6829 16.146 12.7063C16.0774 12.7425 15.9657 12.7477 15.171 12.74L14.2721 12.7321L14.1985 12.6466L14.1249 12.5636V11.3825C14.1249 10.3646 14.1299 10.1935 14.1655 10.1263C14.2391 9.97864 14.2772 9.9735 15.2496 9.98121L16.1358 9.98635L16.2094 10.072Z" fill="white"/>
<path d="M9.25 11.3723V12.2012L9.79083 12.196L10.3291 12.1883L10.3367 11.3646L10.3417 10.5434H9.79587H9.25V11.3723Z" fill="white"/>
<path d="M14.6632 11.3646L14.6708 12.1883L15.2116 12.196L15.7499 12.2012V11.3723V10.5434H15.2041H14.6582L14.6632 11.3646Z" fill="white"/>
<path d="M11.9668 13.574V15.5167H12.5001H13.0333V13.574V11.6314H12.5001H11.9668V13.574Z" fill="white"/>
</svg>
