<svg width="25" height="25" viewBox="0 0 25 25" fill="none" xmlns="http://www.w3.org/2000/svg">
<path d="M12.5 0C7.32969 0 3.125 4.20469 3.125 9.375C3.125 15.8734 11.5875 24.4109 11.9469 24.7719C12.1 24.9234 12.3 25 12.5 25C12.7 25 12.9 24.9234 13.0531 24.7719C13.4125 24.4109 21.875 15.8734 21.875 9.375C21.875 4.20469 17.6703 0 12.5 0Z" fill="#337685"/>
<path d="M19.2157 7.5572L13.2905 2.79406C12.8623 2.44999 12.1831 2.44297 11.7435 2.77768L7.07559 6.34711H7.04704V6.36817L5.50296 7.55018C5.32457 7.68711 5.31601 7.91532 5.48155 8.0616C5.5686 8.13884 5.68562 8.17746 5.80407 8.17746C5.9111 8.17746 6.01955 8.14587 6.10518 8.08033L7.04704 7.36059V14.0875H17.703V7.35474L18.5977 8.07331C18.7718 8.21374 19.0515 8.2114 19.2228 8.06746C19.3926 7.92585 19.3898 7.6953 19.2157 7.5572ZM16.821 13.3631H14.9972L9.7228 13.3619H7.9304V6.68533L12.3457 3.30899C12.4385 3.23761 12.5826 3.23995 12.6725 3.3125L16.8196 6.64553V13.3631H16.821Z" fill="white"/>
<path d="M11.4402 9.65253C11.4411 9.65354 11.442 9.65504 11.4434 9.65604L11.8875 10.1426L12.0423 9.97307L11.8749 9.79005L11.7993 9.70704L12.1867 9.2825L12.238 9.2885C12.2511 9.29 12.2646 9.291 12.2776 9.291C12.3042 9.291 12.3307 9.2875 12.3559 9.281L12.0707 8.96847C12.0648 8.96197 12.0585 8.95647 12.0527 8.95047C12.1404 8.60444 12.0608 8.2179 11.8119 7.94537C11.5653 7.67535 11.2153 7.58684 10.9012 7.67985L11.4339 8.2629L11.294 8.83446L10.772 8.98747L10.2393 8.40492C10.1547 8.74945 10.2352 9.13249 10.4823 9.40251C10.7414 9.68604 11.114 9.76955 11.4402 9.65253ZM13.0138 10.0016C13.0052 10.0436 13.003 10.0871 13.007 10.1311L13.0129 10.1871L12.9764 10.2271L12.7011 10.5286L12.6255 10.6116L12.3825 10.3456L12.2277 10.5151L13.6339 12.0548C13.7207 12.1498 13.8341 12.1973 13.9479 12.1973C14.0613 12.1973 14.1752 12.1498 14.2616 12.0548C14.4348 11.8647 14.4348 11.5572 14.2616 11.3672L13.0138 10.0016ZM14.0996 11.8957L13.8764 11.9613L13.6955 11.7627L13.7553 11.5187L13.9785 11.4532L14.1594 11.6512L14.0996 11.8957ZM12.3843 10.1821L12.6273 10.4481L12.9026 10.1466C12.8878 9.99957 12.9314 9.84655 13.0345 9.73354C13.1375 9.62053 13.277 9.57303 13.4116 9.58903L14.6166 8.2694L13.9416 7.53033L12.7366 8.84996C12.7515 8.99697 12.7078 9.14999 12.6048 9.263C12.5017 9.37601 12.3622 9.42351 12.2277 9.40751L11.9523 9.70904L12.1953 9.97507L11.0047 11.2787L10.961 11.2312L10.7324 11.4327L10.3482 12.0973L10.4463 12.2048L11.0533 11.7837L11.2373 11.5337L11.1937 11.4857L12.3843 10.1821Z" fill="white"/>
</svg>
