<svg width="25" height="25" viewBox="0 0 25 25" fill="none" xmlns="http://www.w3.org/2000/svg">
<path d="M12.5 0C7.32969 0 3.125 4.20469 3.125 9.375C3.125 15.8734 11.5875 24.4109 11.9469 24.7719C12.1 24.9234 12.3 25 12.5 25C12.7 25 12.9 24.9234 13.0531 24.7719C13.4125 24.4109 21.875 15.8734 21.875 9.375C21.875 4.20469 17.6703 0 12.5 0Z" fill="#1A1953"/>
<path d="M16.949 8.1695C16.742 7.9625 16.4675 7.8485 16.175 7.8485C15.8825 7.8485 15.608 7.9625 15.401 8.1695L14.5565 9.0155L11 5.4515C10.709 5.1605 10.322 5 9.911 5C9.5 5 9.113 5.1605 8.822 5.4515L5 9.281L5.435 9.7175L5.909 9.2435V13.9445C5.909 14.192 6.005 14.4245 6.179 14.5985C6.353 14.7725 6.5855 14.87 6.8315 14.87H12.989C13.1885 14.87 13.3775 14.807 13.535 14.6915C13.6565 14.807 13.8155 14.87 13.985 14.87H18.365C18.5405 14.87 18.7055 14.801 18.83 14.6765C18.9545 14.552 19.022 14.387 19.022 14.2115V10.8665L19.391 11.2355L19.7015 10.925L16.949 8.1695ZM14.12 9.452L13.913 9.6605V9.245L14.12 9.452ZM13.298 13.9445C13.298 14.027 13.2665 14.1035 13.208 14.162C13.1495 14.2205 13.073 14.252 12.9905 14.252H11.45V10.8605C11.45 10.6235 11.36 10.3865 11.18 10.2065C11 10.0265 10.763 9.935 10.5275 9.935H9.296C9.0605 9.935 8.8235 10.025 8.6435 10.2065C8.4635 10.3865 8.3735 10.6235 8.3735 10.8605V14.2535H6.833C6.7505 14.2535 6.674 14.222 6.6155 14.1635C6.557 14.105 6.5255 14.027 6.5255 13.946V8.627L9.2585 5.888C9.4325 5.714 9.665 5.6165 9.911 5.6165C10.1585 5.6165 10.3895 5.7125 10.5635 5.888L13.2965 8.627V13.9445H13.298ZM16.832 14.4305H15.518V12.017C15.518 11.9615 15.539 11.9045 15.5825 11.8625C15.626 11.819 15.6815 11.798 15.737 11.798H16.613C16.6685 11.798 16.7255 11.819 16.7675 11.8625C16.8095 11.906 16.832 11.9615 16.832 12.017V14.4305ZM18.584 14.2115C18.584 14.27 18.5615 14.3255 18.5195 14.366C18.4775 14.408 18.4235 14.4305 18.365 14.4305H17.27V12.017C17.27 11.849 17.2055 11.6795 17.078 11.552C16.949 11.423 16.781 11.3585 16.613 11.3585H15.737C15.569 11.3585 15.401 11.423 15.272 11.552C15.143 11.681 15.08 11.849 15.08 12.017V14.4305H13.985C13.9265 14.4305 13.871 14.408 13.8305 14.366C13.826 14.3615 13.823 14.357 13.8185 14.3525C13.88 14.2265 13.913 14.087 13.913 13.943V10.28L14.4305 9.761L14.432 9.7625L14.867 9.326L14.8655 9.3245L15.71 8.48C15.8345 8.3555 15.9995 8.2865 16.175 8.2865C16.3505 8.2865 16.5155 8.3555 16.64 8.48L18.584 10.4285V14.2115Z" fill="white"/>
</svg>
