<svg width="25" height="25" viewBox="0 0 25 25" fill="none" xmlns="http://www.w3.org/2000/svg">
<path d="M12.5 0C7.32969 0 3.125 4.20469 3.125 9.375C3.125 15.8734 11.5875 24.4109 11.9469 24.7719C12.1 24.9234 12.3 25 12.5 25C12.7 25 12.9 24.9234 13.0531 24.7719C13.4125 24.4109 21.875 15.8734 21.875 9.375C21.875 4.20469 17.6703 0 12.5 0Z" fill="#E91940"/>
<path d="M17.5115 7.13178L17.5124 7.24936L15.9234 8.86078L14.3344 10.4722L15.9458 12.0612L17.5572 13.6502L17.558 13.7676L17.5589 13.8852L16.7764 14.6787C15.9047 15.5627 15.9116 15.5557 15.7504 15.493C15.6793 15.4641 15.4114 15.2067 14.082 13.8957L12.4984 12.3341L10.9282 13.9265C9.53477 15.3395 9.34764 15.5223 9.27706 15.5453C9.12684 15.5964 9.10594 15.5793 8.27067 14.7556C7.61632 14.1104 7.50667 13.9954 7.48192 13.923C7.41854 13.7506 7.33969 13.841 9.07288 12.0834L10.6362 10.498L9.05082 8.93474C7.29317 7.20156 7.37328 7.29087 7.43424 7.11762C7.45797 7.04489 7.566 6.92837 8.21125 6.27401C9.03489 5.43874 9.05555 5.42128 9.2063 5.47036C9.27728 5.49237 9.46695 5.67253 10.8799 7.06585L12.4723 8.63603L14.0338 7.05241C15.3449 5.72287 15.6092 5.46178 15.6799 5.43193C15.8401 5.36682 15.8331 5.35994 16.7172 6.23173L17.5107 7.0142L17.5115 7.13178Z" fill="white"/>
</svg>
