<svg width="16" height="16" viewBox="0 0 16 16" fill="none" xmlns="http://www.w3.org/2000/svg">
<circle cx="8" cy="8" r="8" fill="#5363F2"/>
<path d="M4.44617 11.1542H5.26048V11.6639C5.26048 11.8112 5.37872 11.9312 5.52373 11.9312H6.24434C6.38936 11.9312 6.5076 11.8112 6.5076 11.6639V11.1542H9.02416V11.6639C9.02416 11.8112 9.1424 11.9312 9.28741 11.9312H10.008C10.153 11.9312 10.2713 11.8112 10.2713 11.6639V11.1542H11.0856V10.6626H4.44617V11.1542Z" fill="white"/>
<path d="M4.76526 5.56314C4.76526 5.41589 4.8835 5.29582 5.02851 5.29582H10.5011C10.6461 5.29582 10.7644 5.41589 10.7644 5.56314V6.07286H11.1057V4H4.42615V6.07286H4.76749V5.56314H4.76526Z" fill="white"/>
<path d="M10.954 6.28129V7.14215H10.5814V5.8282C10.5814 5.68095 10.4632 5.56088 10.3182 5.56088H5.21589C5.07088 5.56088 4.95263 5.68095 4.95263 5.8282V7.14215H4.58006V6.28129H4V7.14215V7.69944H4.58006H4.95263V8.08909H4.70945C4.56444 8.08909 4.4462 8.20916 4.4462 8.35641V10.5176H11.0879V8.35641C11.0879 8.20916 10.9696 8.08909 10.8246 8.08909H10.5837V7.69944H10.9562H11.5363V7.14215V6.28129H10.954ZM5.44345 6.23371C5.44345 6.08646 5.56169 5.96639 5.70671 5.96639H9.82288C9.9679 5.96639 10.0861 6.08646 10.0861 6.23371V8.09136H5.44345V6.23371ZM5.86065 10.0917H5.41222C5.28728 10.0917 5.18689 9.98978 5.18689 9.86291C5.18689 9.73605 5.28728 9.63411 5.41222 9.63411H5.86065C5.98558 9.63411 6.08598 9.73605 6.08598 9.86291C6.08598 9.98978 5.98558 10.0917 5.86065 10.0917ZM9.13797 10.0917H6.39385V9.8244H9.13797V10.0917ZM9.13797 9.53443H6.39385V9.26711H9.13797V9.53443ZM9.13797 8.97487H6.39385V8.70755H9.13797V8.97487ZM10.1196 10.0917H9.67118C9.54624 10.0917 9.44585 9.98978 9.44585 9.86291C9.44585 9.73605 9.54624 9.63411 9.67118 9.63411H10.1196C10.2445 9.63411 10.3449 9.73605 10.3449 9.86291C10.3427 9.98978 10.2423 10.0917 10.1196 10.0917Z" fill="white"/>
</svg>
