<svg width="320" height="121" viewBox="0 0 320 121" fill="none" xmlns="http://www.w3.org/2000/svg">
<line x1="26.0128" y1="3.24794" x2="26.0128" y2="102.31" stroke="#A19E9E" stroke-width="0.5"/>
<line x1="55.8433" y1="97.4383" x2="55.8433" y2="102.31" stroke="#A19E9E" stroke-width="0.5"/>
<line x1="103.301" y1="97.4383" x2="103.301" y2="102.31" stroke="#A19E9E" stroke-width="0.5"/>
<line x1="152.114" y1="95.8143" x2="152.114" y2="100.686" stroke="#A19E9E" stroke-width="0.5"/>
<line x1="200.928" y1="97.4383" x2="200.928" y2="102.31" stroke="#A19E9E" stroke-width="0.5"/>
<line x1="249.741" y1="97.4383" x2="249.741" y2="102.31" stroke="#A19E9E" stroke-width="0.5"/>
<line x1="298.555" y1="97.4383" x2="298.555" y2="102.31" stroke="#A19E9E" stroke-width="0.5"/>
<line x1="23.0508" y1="97.1883" x2="320" y2="97.1883" stroke="#A19E9E" stroke-width="0.5"/>
<line x1="23.0508" y1="77.7006" x2="27.1186" y2="77.7006" stroke="#A19E9E" stroke-width="0.5"/>
<line x1="23.0508" y1="53.3411" x2="27.1186" y2="53.3411" stroke="#A19E9E" stroke-width="0.5"/>
<line x1="23.0508" y1="30.6055" x2="27.1186" y2="30.6055" stroke="#A19E9E" stroke-width="0.5"/>
<line x1="23.0508" y1="4.62193" x2="27.1186" y2="4.62193" stroke="#A19E9E" stroke-width="0.5"/>
<line x1="25.7628" y1="77.7006" x2="320" y2="77.7006" stroke="#A29E9E" stroke-width="0.5"/>
<line x1="25.7628" y1="53.3411" x2="320" y2="53.3411" stroke="#A29E9E" stroke-width="0.5"/>
<line x1="25.7628" y1="30.6055" x2="320" y2="30.6055" stroke="#A29E9E" stroke-width="0.5"/>
<line x1="25.7628" y1="4.62193" x2="320" y2="4.62193" stroke="#A29E9E" stroke-width="0.5"/>
<path d="M2.53196 80.7027H2.87996V76.3827H2.53196L1.71596 76.8687V77.2647L2.53196 76.7757V80.7027ZM5.3821 80.7927C5.6361 80.7927 5.8651 80.7317 6.0691 80.6097C6.2751 80.4877 6.4391 80.3237 6.5611 80.1177C6.6831 79.9117 6.7441 79.6827 6.7441 79.4307V77.6547C6.7441 77.4007 6.6831 77.1717 6.5611 76.9677C6.4391 76.7617 6.2751 76.5977 6.0691 76.4757C5.8651 76.3537 5.6361 76.2927 5.3821 76.2927C5.1301 76.2927 4.9011 76.3537 4.6951 76.4757C4.4891 76.5977 4.3251 76.7617 4.2031 76.9677C4.0811 77.1717 4.0201 77.4007 4.0201 77.6547V79.4307C4.0201 79.6827 4.0811 79.9117 4.2031 80.1177C4.3251 80.3237 4.4891 80.4877 4.6951 80.6097C4.9011 80.7317 5.1301 80.7927 5.3821 80.7927ZM5.3821 80.4537C5.1961 80.4537 5.0261 80.4077 4.8721 80.3157C4.7201 80.2237 4.5981 80.1017 4.5061 79.9497C4.4141 79.7957 4.3681 79.6257 4.3681 79.4397V77.6427C4.3681 77.4567 4.4141 77.2877 4.5061 77.1357C4.5981 76.9817 4.7201 76.8597 4.8721 76.7697C5.0261 76.6777 5.1961 76.6317 5.3821 76.6317C5.5681 76.6317 5.7381 76.6777 5.8921 76.7697C6.0461 76.8597 6.1681 76.9817 6.2581 77.1357C6.3501 77.2877 6.3961 77.4567 6.3961 77.6427V79.4397C6.3961 79.6257 6.3501 79.7957 6.2581 79.9497C6.1681 80.1017 6.0461 80.2237 5.8921 80.3157C5.7381 80.4077 5.5681 80.4537 5.3821 80.4537ZM8.9446 80.7927C9.1986 80.7927 9.4276 80.7317 9.6316 80.6097C9.8376 80.4877 10.0016 80.3237 10.1236 80.1177C10.2456 79.9117 10.3066 79.6827 10.3066 79.4307V77.6547C10.3066 77.4007 10.2456 77.1717 10.1236 76.9677C10.0016 76.7617 9.8376 76.5977 9.6316 76.4757C9.4276 76.3537 9.1986 76.2927 8.9446 76.2927C8.6926 76.2927 8.4636 76.3537 8.2576 76.4757C8.0516 76.5977 7.8876 76.7617 7.7656 76.9677C7.6436 77.1717 7.5826 77.4007 7.5826 77.6547V79.4307C7.5826 79.6827 7.6436 79.9117 7.7656 80.1177C7.8876 80.3237 8.0516 80.4877 8.2576 80.6097C8.4636 80.7317 8.6926 80.7927 8.9446 80.7927ZM8.9446 80.4537C8.7586 80.4537 8.5886 80.4077 8.4346 80.3157C8.2826 80.2237 8.1606 80.1017 8.0686 79.9497C7.9766 79.7957 7.9306 79.6257 7.9306 79.4397V77.6427C7.9306 77.4567 7.9766 77.2877 8.0686 77.1357C8.1606 76.9817 8.2826 76.8597 8.4346 76.7697C8.5886 76.6777 8.7586 76.6317 8.9446 76.6317C9.1306 76.6317 9.3006 76.6777 9.4546 76.7697C9.6086 76.8597 9.7306 76.9817 9.8206 77.1357C9.9126 77.2877 9.9586 77.4567 9.9586 77.6427V79.4397C9.9586 79.6257 9.9126 79.7957 9.8206 79.9497C9.7306 80.1017 9.6086 80.2237 9.4546 80.3157C9.3006 80.4077 9.1306 80.4537 8.9446 80.4537Z" fill="black"/>
<path d="M97.49 112H102.765V106.96H102.359V111.608H100.329V106.96H99.926V111.608H97.8925V106.96H97.49V112ZM103.325 112H103.811L105.316 109.784L106.825 112H107.311L105.554 109.445L107.269 106.96H106.783L105.316 109.112L103.853 106.96H103.367L105.082 109.445L103.325 112Z" fill="black"/>
<path d="M293.07 112H293.557L295.062 109.784L296.57 112H297.057L295.3 109.445L297.015 106.96H296.528L295.062 109.112L293.599 106.96H293.112L294.827 109.445L293.07 112ZM297.269 112H297.696L298.144 110.733H300.461L300.912 112H301.339L299.554 106.96H299.054L297.269 112ZM298.277 110.351L299.299 107.457L300.328 110.351H298.277Z" fill="black"/>
<path d="M247.857 112H247.455V110.036H245.705L244.753 112H244.28L245.295 109.917C245.013 109.808 244.795 109.626 244.641 109.371C244.487 109.115 244.41 108.823 244.41 108.496C244.41 108.24 244.457 108.005 244.553 107.793C244.651 107.578 244.79 107.4 244.97 107.257C245.149 107.115 245.365 107.025 245.617 106.988C245.682 106.976 245.743 106.969 245.799 106.967C245.855 106.962 245.908 106.96 245.957 106.96H247.857V112ZM247.455 109.641V107.352H245.964C245.924 107.352 245.876 107.354 245.82 107.359C245.764 107.364 245.708 107.372 245.652 107.383C245.379 107.437 245.174 107.571 245.036 107.786C244.901 108.001 244.833 108.237 244.833 108.496C244.833 108.755 244.901 108.992 245.036 109.207C245.174 109.422 245.379 109.557 245.652 109.613C245.708 109.622 245.764 109.629 245.82 109.634C245.876 109.639 245.924 109.641 245.964 109.641H247.455ZM248.838 112H249.24V110.036H250.738C250.787 110.036 250.84 110.034 250.896 110.029C250.952 110.025 251.012 110.018 251.078 110.008C251.456 109.948 251.751 109.777 251.963 109.497C252.178 109.217 252.285 108.884 252.285 108.496C252.285 108.24 252.236 108.005 252.138 107.793C252.042 107.578 251.905 107.4 251.725 107.257C251.545 107.115 251.33 107.025 251.078 106.988C251.012 106.976 250.952 106.969 250.896 106.967C250.84 106.962 250.787 106.96 250.738 106.96H248.838V112ZM249.24 109.641V107.352H250.731C250.771 107.352 250.819 107.354 250.875 107.359C250.931 107.364 250.987 107.372 251.043 107.383C251.316 107.437 251.52 107.571 251.655 107.786C251.793 108.001 251.862 108.237 251.862 108.496C251.862 108.755 251.793 108.992 251.655 109.207C251.52 109.422 251.316 109.557 251.043 109.613C250.987 109.622 250.931 109.629 250.875 109.634C250.819 109.639 250.771 109.641 250.731 109.641H249.24Z" fill="black"/>
<path d="M195.49 112H197.391C197.44 112 197.492 111.998 197.548 111.993C197.604 111.988 197.665 111.981 197.73 111.972C197.982 111.935 198.198 111.846 198.378 111.706C198.557 111.566 198.695 111.39 198.791 111.177C198.889 110.963 198.938 110.728 198.938 110.474C198.938 110.22 198.889 109.986 198.791 109.774C198.695 109.559 198.556 109.382 198.374 109.242C198.194 109.1 197.98 109.011 197.73 108.976C197.665 108.964 197.604 108.957 197.548 108.955C197.492 108.95 197.44 108.948 197.391 108.948H195.893V107.352H198.517V106.96H195.49V112ZM195.893 111.608V109.34H197.384C197.423 109.34 197.471 109.342 197.527 109.347C197.583 109.349 197.639 109.356 197.695 109.368C197.968 109.422 198.172 109.555 198.308 109.767C198.445 109.979 198.514 110.215 198.514 110.474C198.514 110.733 198.445 110.969 198.308 111.181C198.172 111.393 197.968 111.526 197.695 111.58C197.639 111.589 197.583 111.596 197.527 111.601C197.471 111.606 197.423 111.608 197.384 111.608H195.893ZM203.37 112H202.964V107.67L200.045 112H199.639V106.96H200.045V111.282L202.964 106.96H203.37V112Z" fill="black"/>
<path d="M149.044 112.105C149.597 112.105 150.032 111.968 150.35 111.695C150.669 111.422 150.829 111.058 150.829 110.603C150.829 110.284 150.751 110.025 150.595 109.826C150.441 109.626 150.232 109.489 149.968 109.417C150.166 109.321 150.331 109.171 150.462 108.965C150.595 108.758 150.661 108.51 150.661 108.224C150.661 107.922 150.588 107.67 150.441 107.467C150.296 107.264 150.103 107.112 149.863 107.009C149.625 106.906 149.366 106.855 149.086 106.855C148.68 106.855 148.332 106.953 148.043 107.149C147.756 107.343 147.534 107.595 147.378 107.905L147.746 108.122C147.883 107.851 148.058 107.638 148.271 107.481C148.485 107.325 148.754 107.247 149.076 107.247C149.414 107.247 149.69 107.333 149.905 107.506C150.122 107.676 150.231 107.918 150.231 108.23C150.231 108.517 150.13 108.748 149.93 108.923C149.731 109.098 149.455 109.195 149.1 109.214C149.051 109.216 148.985 109.219 148.901 109.221C148.817 109.221 148.738 109.221 148.666 109.221C148.596 109.221 148.553 109.221 148.537 109.221V109.613C148.558 109.613 148.58 109.613 148.603 109.613C148.626 109.613 148.674 109.615 148.747 109.62C148.821 109.622 148.944 109.627 149.114 109.634C149.357 109.641 149.575 109.674 149.769 109.732C149.962 109.788 150.115 109.885 150.227 110.023C150.341 110.158 150.399 110.348 150.399 110.593C150.399 110.938 150.281 111.211 150.045 111.412C149.809 111.61 149.48 111.709 149.058 111.709C148.661 111.709 148.341 111.625 148.096 111.457C147.853 111.289 147.69 111.078 147.606 110.824L147.221 111.02C147.295 111.216 147.411 111.397 147.567 111.562C147.723 111.726 147.924 111.858 148.169 111.958C148.414 112.056 148.706 112.105 149.044 112.105ZM152.515 112H152.921V109.872L154.597 106.96H154.132L152.718 109.41L151.3 106.96H150.835L152.515 109.872V112Z" fill="black"/>
<path d="M48.49 112H48.8925V107.352H51.605V106.96H48.49V112ZM52.1677 112H57.4422V106.96H57.0362V111.608H55.0062V106.96H54.6037V111.608H52.5702V106.96H52.1677V112Z" fill="black"/>
<path d="M7.20571 98.6564C7.45971 98.6564 7.68871 98.5954 7.89271 98.4734C8.09871 98.3514 8.26271 98.1874 8.38471 97.9814C8.50671 97.7754 8.56771 97.5464 8.56771 97.2944V95.5184C8.56771 95.2644 8.50671 95.0354 8.38471 94.8314C8.26271 94.6254 8.09871 94.4614 7.89271 94.3394C7.68871 94.2174 7.45971 94.1564 7.20571 94.1564C6.95371 94.1564 6.72471 94.2174 6.51871 94.3394C6.31271 94.4614 6.14871 94.6254 6.02671 94.8314C5.90471 95.0354 5.84371 95.2644 5.84371 95.5184V97.2944C5.84371 97.5464 5.90471 97.7754 6.02671 97.9814C6.14871 98.1874 6.31271 98.3514 6.51871 98.4734C6.72471 98.5954 6.95371 98.6564 7.20571 98.6564ZM7.20571 98.3174C7.01971 98.3174 6.84971 98.2714 6.69571 98.1794C6.54371 98.0874 6.42171 97.9654 6.32971 97.8134C6.23771 97.6594 6.19171 97.4894 6.19171 97.3034V95.5064C6.19171 95.3204 6.23771 95.1514 6.32971 94.9994C6.42171 94.8454 6.54371 94.7234 6.69571 94.6334C6.84971 94.5414 7.01971 94.4954 7.20571 94.4954C7.39171 94.4954 7.56171 94.5414 7.71571 94.6334C7.86971 94.7234 7.99171 94.8454 8.08171 94.9994C8.17371 95.1514 8.21971 95.3204 8.21971 95.5064V97.3034C8.21971 97.4894 8.17371 97.6594 8.08171 97.8134C7.99171 97.9654 7.86971 98.0874 7.71571 98.1794C7.56171 98.2714 7.39171 98.3174 7.20571 98.3174Z" fill="black"/>
<path d="M3.05096 56.4331C3.31696 56.4331 3.55996 56.3671 3.77996 56.2351C3.99996 56.1031 4.17596 55.9281 4.30796 55.7101C4.43996 55.4901 4.50596 55.2491 4.50596 54.9871C4.50596 54.7211 4.44196 54.4801 4.31396 54.2641C4.18596 54.0461 4.01296 53.8731 3.79496 53.7451C3.57896 53.6171 3.33896 53.5531 3.07496 53.5531C2.89296 53.5531 2.71996 53.5861 2.55596 53.6521C2.39396 53.7181 2.25196 53.8091 2.12996 53.9251L2.22596 52.3591H4.19696V52.0231H1.90496L1.77296 54.2551L2.10296 54.4171C2.20096 54.2591 2.32996 54.1311 2.48996 54.0331C2.65196 53.9331 2.83996 53.8831 3.05396 53.8831C3.25196 53.8831 3.43496 53.9321 3.60296 54.0301C3.77096 54.1261 3.90496 54.2581 4.00496 54.4261C4.10696 54.5921 4.15796 54.7791 4.15796 54.9871C4.15796 55.1851 4.10896 55.3681 4.01096 55.5361C3.91496 55.7021 3.78396 55.8361 3.61796 55.9381C3.45196 56.0381 3.26396 56.0881 3.05396 56.0881C2.89396 56.0881 2.73996 56.0551 2.59196 55.9891C2.44596 55.9211 2.31896 55.8261 2.21096 55.7041C2.10496 55.5801 2.02996 55.4341 1.98596 55.2661L1.65596 55.3561C1.71396 55.5641 1.80896 55.7491 1.94096 55.9111C2.07496 56.0731 2.23696 56.2011 2.42696 56.2951C2.61696 56.3871 2.82496 56.4331 3.05096 56.4331ZM6.58913 56.4331C6.84313 56.4331 7.07213 56.3721 7.27613 56.2501C7.48213 56.1281 7.64613 55.9641 7.76813 55.7581C7.89013 55.5521 7.95113 55.3231 7.95113 55.0711V53.2951C7.95113 53.0411 7.89013 52.8121 7.76813 52.6081C7.64613 52.4021 7.48213 52.2381 7.27613 52.1161C7.07213 51.9941 6.84313 51.9331 6.58913 51.9331C6.33713 51.9331 6.10813 51.9941 5.90213 52.1161C5.69613 52.2381 5.53213 52.4021 5.41013 52.6081C5.28813 52.8121 5.22713 53.0411 5.22713 53.2951V55.0711C5.22713 55.3231 5.28813 55.5521 5.41013 55.7581C5.53213 55.9641 5.69613 56.1281 5.90213 56.2501C6.10813 56.3721 6.33713 56.4331 6.58913 56.4331ZM6.58913 56.0941C6.40313 56.0941 6.23313 56.0481 6.07913 55.9561C5.92713 55.8641 5.80513 55.7421 5.71313 55.5901C5.62113 55.4361 5.57513 55.2661 5.57513 55.0801V53.2831C5.57513 53.0971 5.62113 52.9281 5.71313 52.7761C5.80513 52.6221 5.92713 52.5001 6.07913 52.4101C6.23313 52.3181 6.40313 52.2721 6.58913 52.2721C6.77513 52.2721 6.94513 52.3181 7.09913 52.4101C7.25313 52.5001 7.37513 52.6221 7.46513 52.7761C7.55713 52.9281 7.60313 53.0971 7.60313 53.2831V55.0801C7.60313 55.2661 7.55713 55.4361 7.46513 55.5901C7.37513 55.7421 7.25313 55.8641 7.09913 55.9561C6.94513 56.0481 6.77513 56.0941 6.58913 56.0941ZM10.1516 56.4331C10.4056 56.4331 10.6346 56.3721 10.8386 56.2501C11.0446 56.1281 11.2086 55.9641 11.3306 55.7581C11.4526 55.5521 11.5136 55.3231 11.5136 55.0711V53.2951C11.5136 53.0411 11.4526 52.8121 11.3306 52.6081C11.2086 52.4021 11.0446 52.2381 10.8386 52.1161C10.6346 51.9941 10.4056 51.9331 10.1516 51.9331C9.89963 51.9331 9.67063 51.9941 9.46463 52.1161C9.25863 52.2381 9.09463 52.4021 8.97263 52.6081C8.85063 52.8121 8.78963 53.0411 8.78963 53.2951V55.0711C8.78963 55.3231 8.85063 55.5521 8.97263 55.7581C9.09463 55.9641 9.25863 56.1281 9.46463 56.2501C9.67063 56.3721 9.89963 56.4331 10.1516 56.4331ZM10.1516 56.0941C9.96563 56.0941 9.79563 56.0481 9.64163 55.9561C9.48963 55.8641 9.36763 55.7421 9.27563 55.5901C9.18363 55.4361 9.13763 55.2661 9.13763 55.0801V53.2831C9.13763 53.0971 9.18363 52.9281 9.27563 52.7761C9.36763 52.6221 9.48963 52.5001 9.64163 52.4101C9.79563 52.3181 9.96563 52.2721 10.1516 52.2721C10.3376 52.2721 10.5076 52.3181 10.6616 52.4101C10.8156 52.5001 10.9376 52.6221 11.0276 52.7761C11.1196 52.9281 11.1656 53.0971 11.1656 53.2831V55.0801C11.1656 55.2661 11.1196 55.4361 11.0276 55.5901C10.9376 55.7421 10.8156 55.8641 10.6616 55.9561C10.5076 56.0481 10.3376 56.0941 10.1516 56.0941Z" fill="black"/>
<path d="M1.176 33.6075H1.524V29.2875H1.176L0.36 29.7735V30.1695L1.176 29.6805V33.6075ZM4.02614 33.6975C4.28014 33.6975 4.50914 33.6365 4.71314 33.5145C4.91914 33.3925 5.08314 33.2285 5.20514 33.0225C5.32714 32.8165 5.38814 32.5875 5.38814 32.3355V30.5595C5.38814 30.3055 5.32714 30.0765 5.20514 29.8725C5.08314 29.6665 4.91914 29.5025 4.71314 29.3805C4.50914 29.2585 4.28014 29.1975 4.02614 29.1975C3.77414 29.1975 3.54514 29.2585 3.33914 29.3805C3.13314 29.5025 2.96914 29.6665 2.84714 29.8725C2.72514 30.0765 2.66414 30.3055 2.66414 30.5595V32.3355C2.66414 32.5875 2.72514 32.8165 2.84714 33.0225C2.96914 33.2285 3.13314 33.3925 3.33914 33.5145C3.54514 33.6365 3.77414 33.6975 4.02614 33.6975ZM4.02614 33.3585C3.84014 33.3585 3.67014 33.3125 3.51614 33.2205C3.36414 33.1285 3.24214 33.0065 3.15014 32.8545C3.05814 32.7005 3.01214 32.5305 3.01214 32.3445V30.5475C3.01214 30.3615 3.05814 30.1925 3.15014 30.0405C3.24214 29.8865 3.36414 29.7645 3.51614 29.6745C3.67014 29.5825 3.84014 29.5365 4.02614 29.5365C4.21214 29.5365 4.38214 29.5825 4.53614 29.6745C4.69014 29.7645 4.81214 29.8865 4.90214 30.0405C4.99414 30.1925 5.04014 30.3615 5.04014 30.5475V32.3445C5.04014 32.5305 4.99414 32.7005 4.90214 32.8545C4.81214 33.0065 4.69014 33.1285 4.53614 33.2205C4.38214 33.3125 4.21214 33.3585 4.02614 33.3585ZM7.58864 33.6975C7.84264 33.6975 8.07164 33.6365 8.27564 33.5145C8.48164 33.3925 8.64564 33.2285 8.76764 33.0225C8.88964 32.8165 8.95064 32.5875 8.95064 32.3355V30.5595C8.95064 30.3055 8.88964 30.0765 8.76764 29.8725C8.64564 29.6665 8.48164 29.5025 8.27564 29.3805C8.07164 29.2585 7.84264 29.1975 7.58864 29.1975C7.33664 29.1975 7.10764 29.2585 6.90164 29.3805C6.69564 29.5025 6.53164 29.6665 6.40964 29.8725C6.28764 30.0765 6.22664 30.3055 6.22664 30.5595V32.3355C6.22664 32.5875 6.28764 32.8165 6.40964 33.0225C6.53164 33.2285 6.69564 33.3925 6.90164 33.5145C7.10764 33.6365 7.33664 33.6975 7.58864 33.6975ZM7.58864 33.3585C7.40264 33.3585 7.23264 33.3125 7.07864 33.2205C6.92664 33.1285 6.80464 33.0065 6.71264 32.8545C6.62064 32.7005 6.57464 32.5305 6.57464 32.3445V30.5475C6.57464 30.3615 6.62064 30.1925 6.71264 30.0405C6.80464 29.8865 6.92664 29.7645 7.07864 29.6745C7.23264 29.5825 7.40264 29.5365 7.58864 29.5365C7.77464 29.5365 7.94464 29.5825 8.09864 29.6745C8.25264 29.7645 8.37464 29.8865 8.46464 30.0405C8.55664 30.1925 8.60264 30.3615 8.60264 30.5475V32.3445C8.60264 32.5305 8.55664 32.7005 8.46464 32.8545C8.37464 33.0065 8.25264 33.1285 8.09864 33.2205C7.94464 33.3125 7.77464 33.3585 7.58864 33.3585ZM11.1511 33.6975C11.4051 33.6975 11.6341 33.6365 11.8381 33.5145C12.0441 33.3925 12.2081 33.2285 12.3301 33.0225C12.4521 32.8165 12.5131 32.5875 12.5131 32.3355V30.5595C12.5131 30.3055 12.4521 30.0765 12.3301 29.8725C12.2081 29.6665 12.0441 29.5025 11.8381 29.3805C11.6341 29.2585 11.4051 29.1975 11.1511 29.1975C10.8991 29.1975 10.6701 29.2585 10.4641 29.3805C10.2581 29.5025 10.0941 29.6665 9.97214 29.8725C9.85014 30.0765 9.78914 30.3055 9.78914 30.5595V32.3355C9.78914 32.5875 9.85014 32.8165 9.97214 33.0225C10.0941 33.2285 10.2581 33.3925 10.4641 33.5145C10.6701 33.6365 10.8991 33.6975 11.1511 33.6975ZM11.1511 33.3585C10.9651 33.3585 10.7951 33.3125 10.6411 33.2205C10.4891 33.1285 10.3671 33.0065 10.2751 32.8545C10.1831 32.7005 10.1371 32.5305 10.1371 32.3445V30.5475C10.1371 30.3615 10.1831 30.1925 10.2751 30.0405C10.3671 29.8865 10.4891 29.7645 10.6411 29.6745C10.7951 29.5825 10.9651 29.5365 11.1511 29.5365C11.3371 29.5365 11.5071 29.5825 11.6611 29.6745C11.8151 29.7645 11.9371 29.8865 12.0271 30.0405C12.1191 30.1925 12.1651 30.3615 12.1651 30.5475V32.3445C12.1651 32.5305 12.1191 32.7005 12.0271 32.8545C11.9371 33.0065 11.8151 33.1285 11.6611 33.2205C11.5071 33.3125 11.3371 33.3585 11.1511 33.3585Z" fill="black"/>
<path d="M0.3 6H3.069V5.661H0.825L2.502 4.14C2.7 3.962 2.844 3.784 2.934 3.606C3.024 3.426 3.069 3.207 3.069 2.949C3.069 2.701 3.009 2.474 2.889 2.268C2.769 2.062 2.606 1.898 2.4 1.776C2.196 1.652 1.965 1.59 1.707 1.59C1.451 1.59 1.219 1.65 1.011 1.77C0.805 1.89 0.641 2.053 0.519 2.259C0.397 2.463 0.336 2.692 0.336 2.946H0.684C0.684 2.764 0.728 2.596 0.816 2.442C0.906 2.288 1.028 2.164 1.182 2.07C1.336 1.976 1.51 1.929 1.704 1.929C1.894 1.929 2.065 1.975 2.217 2.067C2.371 2.157 2.493 2.279 2.583 2.433C2.673 2.587 2.718 2.758 2.718 2.946C2.718 3.112 2.691 3.268 2.637 3.414C2.583 3.558 2.468 3.709 2.292 3.867L0.306 5.67L0.3 6ZM5.15114 6.09C5.40514 6.09 5.63414 6.029 5.83814 5.907C6.04414 5.785 6.20814 5.621 6.33014 5.415C6.45214 5.209 6.51314 4.98 6.51314 4.728V2.952C6.51314 2.698 6.45214 2.469 6.33014 2.265C6.20814 2.059 6.04414 1.895 5.83814 1.773C5.63414 1.651 5.40514 1.59 5.15114 1.59C4.89914 1.59 4.67014 1.651 4.46414 1.773C4.25814 1.895 4.09414 2.059 3.97214 2.265C3.85014 2.469 3.78914 2.698 3.78914 2.952V4.728C3.78914 4.98 3.85014 5.209 3.97214 5.415C4.09414 5.621 4.25814 5.785 4.46414 5.907C4.67014 6.029 4.89914 6.09 5.15114 6.09ZM5.15114 5.751C4.96514 5.751 4.79514 5.705 4.64114 5.613C4.48914 5.521 4.36714 5.399 4.27514 5.247C4.18314 5.093 4.13714 4.923 4.13714 4.737V2.94C4.13714 2.754 4.18314 2.585 4.27514 2.433C4.36714 2.279 4.48914 2.157 4.64114 2.067C4.79514 1.975 4.96514 1.929 5.15114 1.929C5.33714 1.929 5.50714 1.975 5.66114 2.067C5.81514 2.157 5.93714 2.279 6.02714 2.433C6.11914 2.585 6.16514 2.754 6.16514 2.94V4.737C6.16514 4.923 6.11914 5.093 6.02714 5.247C5.93714 5.399 5.81514 5.521 5.66114 5.613C5.50714 5.705 5.33714 5.751 5.15114 5.751ZM8.71364 6.09C8.96764 6.09 9.19664 6.029 9.40064 5.907C9.60664 5.785 9.77064 5.621 9.89264 5.415C10.0146 5.209 10.0756 4.98 10.0756 4.728V2.952C10.0756 2.698 10.0146 2.469 9.89264 2.265C9.77064 2.059 9.60664 1.895 9.40064 1.773C9.19664 1.651 8.96764 1.59 8.71364 1.59C8.46164 1.59 8.23264 1.651 8.02664 1.773C7.82064 1.895 7.65664 2.059 7.53464 2.265C7.41264 2.469 7.35164 2.698 7.35164 2.952V4.728C7.35164 4.98 7.41264 5.209 7.53464 5.415C7.65664 5.621 7.82064 5.785 8.02664 5.907C8.23264 6.029 8.46164 6.09 8.71364 6.09ZM8.71364 5.751C8.52764 5.751 8.35764 5.705 8.20364 5.613C8.05164 5.521 7.92964 5.399 7.83764 5.247C7.74564 5.093 7.69964 4.923 7.69964 4.737V2.94C7.69964 2.754 7.74564 2.585 7.83764 2.433C7.92964 2.279 8.05164 2.157 8.20364 2.067C8.35764 1.975 8.52764 1.929 8.71364 1.929C8.89964 1.929 9.06964 1.975 9.22364 2.067C9.37764 2.157 9.49964 2.279 9.58964 2.433C9.68164 2.585 9.72764 2.754 9.72764 2.94V4.737C9.72764 4.923 9.68164 5.093 9.58964 5.247C9.49964 5.399 9.37764 5.521 9.22364 5.613C9.06964 5.705 8.89964 5.751 8.71364 5.751ZM12.2761 6.09C12.5301 6.09 12.7591 6.029 12.9631 5.907C13.1691 5.785 13.3331 5.621 13.4551 5.415C13.5771 5.209 13.6381 4.98 13.6381 4.728V2.952C13.6381 2.698 13.5771 2.469 13.4551 2.265C13.3331 2.059 13.1691 1.895 12.9631 1.773C12.7591 1.651 12.5301 1.59 12.2761 1.59C12.0241 1.59 11.7951 1.651 11.5891 1.773C11.3831 1.895 11.2191 2.059 11.0971 2.265C10.9751 2.469 10.9141 2.698 10.9141 2.952V4.728C10.9141 4.98 10.9751 5.209 11.0971 5.415C11.2191 5.621 11.3831 5.785 11.5891 5.907C11.7951 6.029 12.0241 6.09 12.2761 6.09ZM12.2761 5.751C12.0901 5.751 11.9201 5.705 11.7661 5.613C11.6141 5.521 11.4921 5.399 11.4001 5.247C11.3081 5.093 11.2621 4.923 11.2621 4.737V2.94C11.2621 2.754 11.3081 2.585 11.4001 2.433C11.4921 2.279 11.6141 2.157 11.7661 2.067C11.9201 1.975 12.0901 1.929 12.2761 1.929C12.4621 1.929 12.6321 1.975 12.7861 2.067C12.9401 2.157 13.0621 2.279 13.1521 2.433C13.2441 2.585 13.2901 2.754 13.2901 2.94V4.737C13.2901 4.923 13.2441 5.093 13.1521 5.247C13.0621 5.399 12.9401 5.521 12.7861 5.613C12.6321 5.705 12.4621 5.751 12.2761 5.751Z" fill="black"/>
<rect x="43.5503" y="3.24794" width="10" height="94.1903" fill="#34346F"/>
<rect x="51.1243" y="37.3513" width="10" height="60.0869" fill="#F87129"/>
<rect x="91.8342" y="3.24794" width="10" height="94.1903" fill="#34346F"/>
<rect x="141.065" y="3.24794" width="10" height="94.1903" fill="#34346F"/>
<rect x="157.16" y="16.2397" width="10" height="81.1986" fill="#0970AB"/>
<rect x="149.586" y="37.3513" width="10" height="60.0869" fill="#F87129"/>
<rect x="190.296" y="3.24794" width="10" height="94.1903" fill="#34346F"/>
<rect x="206.391" y="16.2397" width="10" height="81.1986" fill="#0970AB"/>
<rect x="238.58" y="3.24794" width="10" height="94.1903" fill="#34346F"/>
<rect x="254.675" y="16.2397" width="10" height="81.1986" fill="#0970AB"/>
<rect x="287.811" y="3.24794" width="10" height="94.1903" fill="#34346F"/>
<rect x="303.905" y="16.2397" width="10" height="81.1986" fill="#0970AB"/>
</svg>
