<svg width="66" height="66" viewBox="0 0 66 66" fill="none" xmlns="http://www.w3.org/2000/svg">
<rect width="66" height="66" rx="10" fill="#EFF3F5" fill-opacity="0.38"/>
<path d="M22.7131 10C20.284 9.99495 17.9138 10.748 15.9331 12.1541C13.9524 13.5603 12.4598 15.5495 11.6635 17.8443C10.8672 20.1392 10.8068 22.6254 11.4907 24.9562C12.1747 27.287 13.569 29.3463 15.4791 30.8469H29.947C31.8572 29.3463 33.2514 27.287 33.9354 24.9562C34.6194 22.6254 34.559 20.1392 33.7626 17.8443C32.9663 15.5495 31.4737 13.5603 29.493 12.1541C27.5123 10.748 25.1422 9.99495 22.7131 10Z" fill="#E0E0EF"/>
<path d="M13.7737 21.6826C13.774 18.8207 14.8247 16.0585 16.7265 13.92C18.6283 11.7815 21.2488 10.4154 24.0911 10.0809C23.6338 10.0272 23.1739 10.0002 22.7135 10C20.2844 9.99486 17.9142 10.7478 15.9334 12.1539C13.9526 13.5601 12.4599 15.5492 11.6636 17.8441C10.8672 20.139 10.8067 22.6252 11.4907 24.9561C12.1747 27.2869 13.5689 29.3463 15.4791 30.8469H18.2342C16.841 29.7608 15.7147 28.3703 14.9416 26.7818C14.1685 25.1934 13.769 23.4492 13.7737 21.6826Z" fill="#9D9DE4"/>
<path d="M43.9197 31.611C41.4016 31.6111 38.9509 32.4239 36.9318 33.9286C34.9128 35.4332 33.4333 37.5493 32.7133 39.9623C31.9934 42.3752 32.0714 44.9561 32.9359 47.3211C33.8003 49.6861 35.405 51.7089 37.5113 53.0888L50.3289 53.0879C52.435 51.7079 54.0394 49.685 54.9037 47.32C55.7679 44.9551 55.8458 42.3743 55.1258 39.9616C54.4057 37.5488 52.9262 35.4328 50.9072 33.9283C48.8882 32.4238 46.4376 31.6111 43.9197 31.611Z" fill="#E1EAF3"/>
<path d="M34.9804 43.3056C34.9805 40.4425 36.0308 37.6789 37.9323 35.5385C39.8337 33.398 42.4543 32.0294 45.2974 31.6919C43.6569 31.4976 41.9938 31.653 40.4177 32.1479C38.8416 32.6428 37.3882 33.4659 36.1533 34.5631C34.9183 35.6603 33.9297 37.0067 33.2527 38.5136C32.5757 40.0204 32.2256 41.6536 32.2253 43.3056C32.224 45.2471 32.7067 47.1584 33.6296 48.8666C34.5526 50.5748 35.8867 52.026 37.5115 53.0889H40.2666C38.6418 52.026 37.3077 50.5748 36.3847 48.8666C35.4618 47.1584 34.9791 45.2471 34.9804 43.3056Z" fill="#AED5F9"/>
<path d="M29.9184 30.8727V27.7613C29.9233 27.4082 29.8627 27.0573 29.7398 26.7263C29.7269 26.6951 29.7189 26.6639 29.7051 26.6326C29.5461 26.2821 29.3167 25.9681 29.0311 25.71C28.7454 25.452 28.4098 25.2556 28.0449 25.1329L27.6225 24.9704C26.975 24.7472 26.3134 24.6021 25.6421 24.4185H19.7824C19.1111 24.6021 18.4489 24.7472 17.8006 24.9704L17.3781 25.1247C17.0128 25.2482 16.6768 25.4454 16.3909 25.704C16.1049 25.9627 15.8752 26.2774 15.7159 26.6285C15.7021 26.6597 15.6957 26.6928 15.6828 26.7242C15.5581 27.0556 15.4961 27.4073 15.5 27.7613V30.8727L15.4854 30.8838C17.129 32.1832 19.0934 33.014 21.1707 33.288L24.1822 33.2991C25.3714 33.1461 26.531 32.8161 27.6225 32.3201V32.3192C28.4495 31.9315 29.2292 31.4499 29.946 30.8838L29.9184 30.8727Z" fill="#A7ADF5"/>
<path d="M50.15 47.7274C50.139 47.6999 50.1328 47.6723 50.1208 47.6439C49.9799 47.3332 49.7766 47.0548 49.5236 46.826C49.2705 46.5973 48.9731 46.423 48.6498 46.3141L48.2756 46.1919C47.7052 45.9839 47.1173 45.8275 46.519 45.7245H41.321C40.7224 45.8276 40.1341 45.9841 39.5633 46.1919L39.1886 46.3178C38.8648 46.4261 38.5668 46.5999 38.313 46.8284C38.0593 47.0568 37.8553 47.335 37.7137 47.6457C37.7018 47.6742 37.7045 47.7008 37.6935 47.7284C37.5864 48.0221 37.5347 48.3332 37.541 48.6458V53.0889C39.0396 54.0776 40.7479 54.7033 42.5305 54.9164L45.2397 54.9247C47.0505 54.724 48.7872 54.0943 50.3059 53.0879V48.6458C50.3115 48.3327 50.2586 48.0212 50.15 47.7274Z" fill="#4757FA"/>
<path d="M53.8418 15.9694H42.5422C42.0698 15.9706 41.6169 16.1585 41.2822 16.4919C40.9475 16.8254 40.7581 17.2776 40.7551 17.7501V20.1286C40.7551 22.5889 38.0955 22.3226 37.5169 22.4852C37.4784 22.4962 37.4683 22.5072 37.4876 22.5192C37.4876 22.5192 37.9858 24.1107 40.2661 24.5129C40.4057 24.5412 40.5311 24.6175 40.6204 24.7286C40.7097 24.8396 40.7574 24.9784 40.7551 25.1209V25.6398C40.757 26.1152 40.9452 26.571 41.2793 26.9092C41.6134 27.2475 42.0669 27.4412 42.5422 27.4489H53.8418C54.3176 27.4414 54.7715 27.2478 55.1062 26.9096C55.441 26.5714 55.6299 26.1156 55.6326 25.6398V17.7482C55.6285 17.2757 55.4381 16.8238 55.1028 16.4908C54.7675 16.1577 54.3144 15.9704 53.8418 15.9694Z" fill="#9797DE"/>
<path d="M43.9197 47.5751L45.0465 48.0866L45.0364 48.1086L44.6902 49.2534H44.6883H43.2355H43.2346L42.937 48.0214L43.9197 47.5751Z" fill="#4CA987"/>
<path d="M45.2487 54.9174L45.2496 54.9248C44.341 55.0279 43.4236 55.0251 42.5156 54.9165L42.5175 54.9046L43.2356 49.2534H44.6885L45.2487 54.9174Z" fill="#5FCDA4"/>
<path d="M42.3164 43.9658L42.3316 45.5472C42.3496 45.8949 42.5006 46.2224 42.7534 46.4619L43.9166 47.5749L45.0807 46.4619C45.3358 46.2238 45.4905 45.8973 45.5131 45.549L45.5307 43.9648L42.3164 43.9658Z" fill="#EFC597"/>
<path d="M45.5186 45.55L45.4993 45.5491C45.4825 45.8956 45.3332 46.2224 45.0823 46.4619L43.9197 47.575L46.1403 48.5824L46.5131 45.7438L46.5196 45.7098C46.188 45.6437 45.8544 45.5904 45.5186 45.55Z" fill="#94B8FF"/>
<path d="M42.7599 46.4591C42.6337 46.3409 42.5321 46.1989 42.4609 46.0413C42.3897 45.8837 42.3502 45.7136 42.3448 45.5408H42.3411C41.9986 45.6326 41.6588 45.6386 41.3208 45.7065L41.3272 45.7421L41.7001 48.5816L43.9198 47.5729L42.7599 46.4591Z" fill="#94B8FF"/>
<path d="M29.1157 44.0953C28.5371 43.9337 25.8775 44.2 25.8775 41.7388V39.3602C25.8757 38.8848 25.6875 38.429 25.3533 38.0908C25.0192 37.7525 24.5658 37.5587 24.0904 37.551H12.7908C12.315 37.5588 11.8611 37.7526 11.5263 38.0909C11.1916 38.4293 11.0027 38.8852 11 39.3611V47.2508C11.0038 47.7236 11.1941 48.1757 11.5294 48.509C11.8648 48.8422 12.3181 49.0297 12.7908 49.0306H24.0904C24.5628 49.0296 25.0157 48.8421 25.3504 48.5087C25.6852 48.1753 25.8746 47.7232 25.8775 47.2508V46.731C25.875 46.5889 25.9224 46.4503 26.0114 46.3394C26.1004 46.2285 26.2254 46.1523 26.3647 46.124C28.645 45.7208 29.1486 44.1293 29.1486 44.1293C29.1679 44.1173 29.1543 44.1063 29.1157 44.0953Z" fill="#C4E2FF"/>
<path d="M24.5147 24.2714L24.4936 24.2705C24.4749 24.661 24.3065 25.0294 24.0234 25.2991L22.7129 26.5545L25.2154 27.6896L25.6361 24.49L25.6434 24.4514C25.2696 24.378 24.8934 24.318 24.5147 24.2714Z" fill="#6363E7"/>
<path d="M20.9185 22.7653L20.9286 24.2687C20.948 24.6601 21.1171 25.029 21.4011 25.2991L22.7109 26.5545L24.0225 25.2991C24.3064 25.0296 24.4757 24.6614 24.4955 24.2705L24.5001 22.6735L20.9185 22.7653Z" fill="#EFC597"/>
<path d="M23.5799 28.4464L24.1732 33.2991C23.1754 33.4226 22.166 33.4189 21.1692 33.288L21.9415 28.4464H23.5799Z" fill="#BE30B8"/>
<path d="M21.405 25.282C21.259 25.1492 21.1421 24.9876 21.0615 24.8075C20.9809 24.6273 20.9384 24.4325 20.9366 24.2351H20.932C20.5463 24.3269 20.1624 24.3586 19.7822 24.4349L19.7896 24.4819L20.2093 27.6858L22.7127 26.5442L21.405 25.282Z" fill="#6363E7"/>
<path d="M22.713 26.5544L23.9831 27.1312L23.972 27.156L23.5808 28.4463H23.5799H21.9415H21.9397L21.6045 27.0568L22.713 26.5544Z" fill="#A20576"/>
<path d="M45.501 44.1485C44.8568 44.4838 44.1225 44.6055 43.4045 44.4959C42.6865 44.3862 42.022 44.051 41.5071 43.5387C40.889 42.9243 40.507 41.983 40.507 41.0454V41.0398C40.3901 41.0197 40.2785 40.9757 40.1793 40.9107C40.0801 40.8456 39.9954 40.7608 39.9303 40.6616C39.8653 40.5623 39.8214 40.4508 39.8013 40.3339C39.7812 40.2169 39.7854 40.0971 39.8136 39.9819C39.8464 39.8481 39.9206 39.7281 40.0257 39.639C40.1307 39.55 40.2613 39.4964 40.3986 39.486L40.4032 39.4851C40.4123 39.5246 40.43 39.5617 40.4551 39.5936C40.4802 39.6255 40.512 39.6515 40.5483 39.6696C40.5483 39.6696 41.4125 39.8717 41.4171 39.8221L41.5374 38.327C41.5388 38.3087 41.5439 38.2909 41.5523 38.2746C41.5606 38.2582 41.5721 38.2437 41.5861 38.2319C41.6001 38.22 41.6163 38.211 41.6338 38.2054C41.6513 38.1998 41.6697 38.1978 41.688 38.1993H41.6917L41.9635 38.2287C42.5327 38.2899 43.1079 38.1988 43.6303 37.9649C44.1528 37.7309 44.6038 37.3624 44.9372 36.8971C45.7665 37.4573 46.3574 38.3062 46.5948 39.2784L46.761 39.958L47.335 39.6917C47.3926 39.6369 47.4304 39.5645 47.4425 39.486H47.4434C47.5804 39.4968 47.7105 39.5505 47.8152 39.6396C47.9199 39.7286 47.9939 39.8484 48.0266 39.9819C48.0544 40.097 48.0585 40.2166 48.0384 40.3333C48.0183 40.45 47.9745 40.5613 47.9097 40.6605C47.8449 40.7596 47.7605 40.8444 47.6616 40.9096C47.5628 40.9749 47.4516 41.0192 47.335 41.0398V41.0454C47.335 41.983 46.953 42.9243 46.3349 43.5387C46.0897 43.7833 45.8085 43.989 45.501 44.1485Z" fill="#FFD8B7"/>
<path d="M43.9217 34.5691C44.4156 34.5678 44.9046 34.6682 45.3581 34.8639C45.8116 35.0597 46.22 35.3466 46.5579 35.7069C46.8958 36.0672 47.156 36.4931 47.3223 36.9583C47.4886 37.4234 47.5574 37.9178 47.5244 38.4106L47.4455 39.5522C47.4445 39.5604 47.4436 39.5696 47.4427 39.5779C47.4306 39.6564 47.3928 39.7288 47.3353 39.7836L46.7613 40.0499L46.5951 39.3703C46.3576 38.3981 45.7667 37.5492 44.9374 36.989C44.604 37.4543 44.153 37.8228 43.6306 38.0568C43.1081 38.2907 42.5329 38.3818 41.9637 38.3206L41.6919 38.2912H41.6882C41.6699 38.2897 41.6515 38.2918 41.6341 38.2973C41.6166 38.3029 41.6004 38.3119 41.5864 38.3238C41.5724 38.3356 41.5609 38.3501 41.5525 38.3665C41.5441 38.3828 41.5391 38.4006 41.5376 38.4189L41.4173 39.914C41.4127 39.9636 40.5485 39.7615 40.5485 39.7615C40.5122 39.7434 40.4804 39.7174 40.4553 39.6855C40.4302 39.6536 40.4125 39.6165 40.4034 39.577C40.3996 39.5619 40.3971 39.5465 40.3961 39.531L40.318 38.4106C40.3125 38.3261 40.3088 38.2417 40.3088 38.159C40.3126 37.2041 40.6952 36.2897 41.3726 35.6166C42.05 34.9435 42.9668 34.5668 43.9217 34.5691Z" fill="#6D7486"/>
<path d="M27.0382 18.9036C27.0656 19.0143 27.0708 19.1292 27.0536 19.2419C27.0364 19.3546 26.9972 19.4627 26.9382 19.5602C26.8792 19.6577 26.8015 19.7426 26.7096 19.8101C26.6177 19.8775 26.5134 19.9262 26.4027 19.9533C26.3338 19.9698 26.2633 19.9781 26.1924 19.9781H26.1337C26.0887 21.1756 25.4339 22.2988 24.4788 22.8746C23.9464 23.1944 23.3372 23.3635 22.7162 23.3638C22.0952 23.3641 21.4858 23.1957 20.9531 22.8765C19.9916 22.2997 19.3387 21.172 19.2937 19.9781H19.2321C19.002 19.9789 18.7809 19.8884 18.6175 19.7264C18.4541 19.5643 18.3617 19.344 18.3606 19.1139C18.3604 19.043 18.3691 18.9724 18.3863 18.9036C18.4288 18.7384 18.5334 18.5961 18.6784 18.5062C18.8233 18.4164 18.9974 18.386 19.1642 18.4215H19.1917V18.4178C19.6959 16.8217 20.7428 16.1412 21.472 15.8528C22.0313 16.5048 22.9221 16.84 24.6202 16.9429C24.6202 16.9429 24.9517 18.2809 26.2356 18.4169H26.2604C26.4278 18.3824 26.602 18.4138 26.7468 18.5044C26.8917 18.595 26.9961 18.738 27.0382 18.9036Z" fill="#FFD8B7"/>
<path d="M24.8279 14.0803L24.793 14.1318C24.6226 14.0138 24.4457 13.9055 24.2631 13.8076C22.667 12.9452 20.8725 13.9729 20.6346 14.118L20.6172 14.0803C20.6172 13.522 20.839 12.9865 21.2338 12.5916C21.6287 12.1968 22.1642 11.975 22.7225 11.975C23.2809 11.975 23.8164 12.1968 24.2113 12.5916C24.6061 12.9865 24.8279 13.522 24.8279 14.0803Z" fill="#4A5160"/>
<path d="M25.5543 14.7407C25.3362 14.4711 25.0797 14.235 24.793 14.04C24.6226 13.922 24.4457 13.8137 24.2631 13.7158C22.667 12.8534 20.8725 13.8811 20.6346 14.0262C20.6172 14.0363 20.608 14.0427 20.608 14.0427C20.1053 14.3991 19.7028 14.8789 19.4392 15.4359C19.1755 15.9929 19.0597 16.6083 19.1028 17.223L19.1919 18.5096C19.696 16.9135 20.743 16.233 21.4722 15.9446C22.0315 16.5967 22.9223 16.9319 24.6203 17.0347C24.6203 17.0347 24.9519 18.3728 26.2357 18.5087L26.3248 17.223C26.3885 16.3282 26.1134 15.4422 25.5543 14.7407Z" fill="#4A5160"/>
<path d="M25.5545 14.7407C26.1136 15.4422 26.3886 16.3282 26.325 17.223L26.2359 18.5087C24.952 18.3728 24.6205 17.0347 24.6205 17.0347C22.9224 16.9319 22.0316 16.5967 21.4723 15.9446C21.0765 15.4836 20.8469 14.8656 20.6155 14.0574C20.6136 14.0522 20.6111 14.0473 20.6082 14.0427C20.6082 14.0427 20.6173 14.0363 20.6348 14.0262C20.8726 13.8811 22.6671 12.8534 24.2633 13.7158C24.4459 13.8137 24.6228 13.922 24.7932 14.04C25.0799 14.235 25.3364 14.4711 25.5545 14.7407Z" fill="#6D7486"/>
<path d="M43.5102 25.6398V25.1209C43.5129 24.9786 43.4656 24.8398 43.3766 24.7288C43.2876 24.6177 43.1625 24.5413 43.023 24.5129C40.7427 24.1107 40.2429 22.5192 40.2429 22.5192C40.2235 22.5072 40.2317 22.4962 40.2705 22.4852C40.849 22.3226 43.5104 22.5889 43.5104 20.1286V17.7501C43.5134 17.2776 43.7028 16.8255 44.0374 16.492C44.3721 16.1585 44.8249 15.9707 45.2973 15.9694H42.5422C42.0698 15.9706 41.6169 16.1585 41.2822 16.4919C40.9475 16.8254 40.7581 17.2776 40.7551 17.7501V20.1286C40.7551 22.5889 38.0955 22.3226 37.5169 22.4852C37.4784 22.4962 37.4683 22.5072 37.4876 22.5192C37.4876 22.5192 37.9858 24.1107 40.2661 24.5129C40.4057 24.5412 40.5311 24.6175 40.6204 24.7286C40.7097 24.8396 40.7574 24.9784 40.7551 25.1209V25.6398C40.757 26.1152 40.9452 26.571 41.2793 26.9092C41.6134 27.2475 42.0669 27.4412 42.5422 27.4489H45.2973C44.822 27.4412 44.3685 27.2475 44.0344 26.9092C43.7003 26.571 43.5121 26.1152 43.5102 25.6398Z" fill="#6363E7"/>
<path d="M13.7551 47.2508V39.3611C13.7578 38.8852 13.9467 38.4293 14.2814 38.0909C14.6162 37.7526 15.0701 37.5588 15.5459 37.551H12.7908C12.315 37.5588 11.8611 37.7526 11.5263 38.0909C11.1916 38.4293 11.0027 38.8852 11 39.3611V47.2508C11.0038 47.7236 11.1941 48.1757 11.5294 48.509C11.8648 48.8422 12.3181 49.0297 12.7908 49.0306H15.5459C15.0732 49.0297 14.6199 48.8422 14.2845 48.509C13.9492 48.1757 13.7589 47.7236 13.7551 47.2508Z" fill="#85BEF2"/>
<path d="M52.4941 21.2322H52.1162C51.9701 21.2322 51.8299 21.1741 51.7266 21.0708C51.6232 20.9674 51.5652 20.8273 51.5652 20.6811C51.5652 20.535 51.6232 20.3949 51.7266 20.2915C51.8299 20.1882 51.9701 20.1301 52.1162 20.1301H52.4941C52.6403 20.1301 52.7804 20.1882 52.8837 20.2915C52.9871 20.3949 53.0451 20.535 53.0451 20.6811C53.0451 20.8273 52.9871 20.9674 52.8837 21.0708C52.7804 21.1741 52.6403 21.2322 52.4941 21.2322Z" fill="white"/>
<path d="M50.5185 21.2322H49.0102C48.8641 21.2322 48.724 21.1741 48.6206 21.0708C48.5173 20.9674 48.4592 20.8273 48.4592 20.6811C48.4592 20.535 48.5173 20.3949 48.6206 20.2915C48.724 20.1882 48.8641 20.1301 49.0102 20.1301H50.5185C50.6646 20.1301 50.8048 20.1882 50.9081 20.2915C51.0114 20.3949 51.0695 20.535 51.0695 20.6811C51.0695 20.8273 51.0114 20.9674 50.9081 21.0708C50.8048 21.1741 50.6646 21.2322 50.5185 21.2322Z" fill="white"/>
<path d="M47.5436 21.2322H43.9817C43.8355 21.2322 43.6954 21.1741 43.5921 21.0708C43.4887 20.9674 43.4307 20.8273 43.4307 20.6811C43.4307 20.535 43.4887 20.3949 43.5921 20.2915C43.6954 20.1882 43.8355 20.1301 43.9817 20.1301H47.5436C47.6897 20.1301 47.8299 20.1882 47.9332 20.2915C48.0365 20.3949 48.0946 20.535 48.0946 20.6811C48.0946 20.8273 48.0365 20.9674 47.9332 21.0708C47.8299 21.1741 47.6897 21.2322 47.5436 21.2322Z" fill="white"/>
<path d="M52.4941 19.2051H50.687C50.5409 19.2051 50.4007 19.147 50.2974 19.0437C50.194 18.9403 50.136 18.8002 50.136 18.654C50.136 18.5079 50.194 18.3678 50.2974 18.2644C50.4007 18.1611 50.5409 18.103 50.687 18.103H52.4941C52.6402 18.103 52.7804 18.1611 52.8837 18.2644C52.987 18.3678 53.0451 18.5079 53.0451 18.654C53.0451 18.8002 52.987 18.9403 52.8837 19.0437C52.7804 19.147 52.6402 19.2051 52.4941 19.2051Z" fill="white"/>
<path d="M49.0894 19.2051H46.331C46.1849 19.2051 46.0448 19.147 45.9414 19.0437C45.8381 18.9403 45.78 18.8002 45.78 18.654C45.78 18.5079 45.8381 18.3678 45.9414 18.2644C46.0448 18.1611 46.1849 18.103 46.331 18.103H49.0894C49.2355 18.103 49.3757 18.1611 49.479 18.2644C49.5823 18.3678 49.6404 18.5079 49.6404 18.654C49.6404 18.8002 49.5823 18.9403 49.479 19.0437C49.3757 19.147 49.2355 19.2051 49.0894 19.2051Z" fill="white"/>
<path d="M44.8646 19.2051H43.9819C43.8358 19.2051 43.6956 19.147 43.5923 19.0437C43.489 18.9403 43.4309 18.8002 43.4309 18.654C43.4309 18.5079 43.489 18.3678 43.5923 18.2644C43.6956 18.1611 43.8358 18.103 43.9819 18.103H44.8646C45.0107 18.103 45.1509 18.1611 45.2542 18.2644C45.3575 18.3678 45.4156 18.5079 45.4156 18.654C45.4156 18.8002 45.3575 18.9403 45.2542 19.0437C45.1509 19.147 45.0107 19.2051 44.8646 19.2051Z" fill="white"/>
<path d="M52.4941 23.2591H50.687C50.5409 23.2591 50.4007 23.2011 50.2974 23.0978C50.194 22.9944 50.136 22.8543 50.136 22.7081C50.136 22.562 50.194 22.4218 50.2974 22.3185C50.4007 22.2152 50.5409 22.1571 50.687 22.1571H52.4941C52.6402 22.1571 52.7804 22.2152 52.8837 22.3185C52.987 22.4218 53.0451 22.562 53.0451 22.7081C53.0451 22.8543 52.987 22.9944 52.8837 23.0978C52.7804 23.2011 52.6402 23.2591 52.4941 23.2591Z" fill="white"/>
<path d="M49.0894 23.2591H46.331C46.1849 23.2591 46.0448 23.2011 45.9414 23.0978C45.8381 22.9944 45.78 22.8543 45.78 22.7081C45.78 22.562 45.8381 22.4218 45.9414 22.3185C46.0448 22.2152 46.1849 22.1571 46.331 22.1571H49.0894C49.2355 22.1571 49.3757 22.2152 49.479 22.3185C49.5823 22.4218 49.6404 22.562 49.6404 22.7081C49.6404 22.8543 49.5823 22.9944 49.479 23.0978C49.3757 23.2011 49.2355 23.2591 49.0894 23.2591Z" fill="white"/>
<path d="M44.8643 23.2591H43.9817C43.8355 23.2591 43.6954 23.2011 43.5921 23.0978C43.4887 22.9944 43.4307 22.8543 43.4307 22.7081C43.4307 22.562 43.4887 22.4218 43.5921 22.3185C43.6954 22.2152 43.8355 22.1571 43.9817 22.1571H44.8643C45.0105 22.1571 45.1506 22.2152 45.254 22.3185C45.3573 22.4218 45.4153 22.562 45.4153 22.7081C45.4153 22.8543 45.3573 22.9944 45.254 23.0978C45.1506 23.2011 45.0105 23.2591 44.8643 23.2591Z" fill="white"/>
<path d="M52.4941 25.2861H52.1162C51.9701 25.2861 51.8299 25.2281 51.7266 25.1247C51.6232 25.0214 51.5652 24.8812 51.5652 24.7351C51.5652 24.589 51.6232 24.4488 51.7266 24.3455C51.8299 24.2421 51.9701 24.1841 52.1162 24.1841H52.4941C52.6403 24.1841 52.7804 24.2421 52.8837 24.3455C52.9871 24.4488 53.0451 24.589 53.0451 24.7351C53.0451 24.8812 52.9871 25.0214 52.8837 25.1247C52.7804 25.2281 52.6403 25.2861 52.4941 25.2861Z" fill="white"/>
<path d="M50.5185 25.2861H49.0102C48.8641 25.2861 48.724 25.2281 48.6206 25.1247C48.5173 25.0214 48.4592 24.8812 48.4592 24.7351C48.4592 24.589 48.5173 24.4488 48.6206 24.3455C48.724 24.2421 48.8641 24.1841 49.0102 24.1841H50.5185C50.6646 24.1841 50.8048 24.2421 50.9081 24.3455C51.0114 24.4488 51.0695 24.589 51.0695 24.7351C51.0695 24.8812 51.0114 25.0214 50.9081 25.1247C50.8048 25.2281 50.6646 25.2861 50.5185 25.2861Z" fill="white"/>
<path d="M47.5436 25.2861H43.9817C43.8355 25.2861 43.6954 25.2281 43.5921 25.1247C43.4887 25.0214 43.4307 24.8812 43.4307 24.7351C43.4307 24.589 43.4887 24.4488 43.5921 24.3455C43.6954 24.2421 43.8355 24.1841 43.9817 24.1841H47.5436C47.6897 24.1841 47.8299 24.2421 47.9332 24.3455C48.0365 24.4488 48.0946 24.589 48.0946 24.7351C48.0946 24.8812 48.0365 25.0214 47.9332 25.1247C47.8299 25.2281 47.6897 25.2861 47.5436 25.2861Z" fill="white"/>
<path d="M16.7225 15.1735C16.6096 15.1736 16.4994 15.139 16.4069 15.0744C16.3143 15.0098 16.2438 14.9184 16.2049 14.8124C16.166 14.7065 16.1606 14.5912 16.1893 14.482C16.2181 14.3729 16.2797 14.2752 16.3658 14.2022C16.4582 14.1239 16.5527 14.0461 16.6472 13.9726C16.7039 13.927 16.7692 13.893 16.8392 13.8728C16.9092 13.8525 16.9826 13.8464 17.055 13.8546C17.1274 13.8629 17.1974 13.8855 17.261 13.921C17.3246 13.9565 17.3806 14.0043 17.4256 14.0616C17.4707 14.1189 17.5039 14.1845 17.5234 14.2548C17.5428 14.325 17.5482 14.3984 17.5391 14.4707C17.5301 14.543 17.5068 14.6128 17.4705 14.676C17.4343 14.7392 17.3859 14.7946 17.3281 14.839C17.2446 14.9048 17.1606 14.9734 17.0786 15.0429C16.9792 15.1274 16.8529 15.1737 16.7225 15.1735Z" fill="#F4F8FC"/>
<path d="M13.4446 22.2457C13.2984 22.2457 13.1583 22.1877 13.0549 22.0844C12.9516 21.981 12.8936 21.8409 12.8936 21.6947C12.8931 20.8621 12.9983 20.0328 13.2064 19.2266C13.5068 18.0651 14.019 16.9689 14.7174 15.9934C14.7592 15.9338 14.8123 15.883 14.8738 15.844C14.9353 15.805 15.0039 15.7786 15.0757 15.7662C15.1475 15.7539 15.2209 15.756 15.2919 15.7722C15.3629 15.7885 15.4299 15.8186 15.4892 15.861C15.5484 15.9033 15.5987 15.9569 15.6371 16.0188C15.6755 16.0807 15.7012 16.1495 15.7129 16.2214C15.7245 16.2933 15.7217 16.3668 15.7048 16.4376C15.6878 16.5084 15.657 16.5751 15.6141 16.634C14.9944 17.4996 14.5399 18.4722 14.2733 19.5029C14.0885 20.2188 13.9952 20.9553 13.9956 21.6947C13.9956 21.8409 13.9375 21.981 13.8342 22.0844C13.7309 22.1877 13.5907 22.2457 13.4446 22.2457Z" fill="#F4F8FC"/>
<path d="M14.5166 42.8429H14.1387C13.9925 42.8429 13.8524 42.7848 13.749 42.6815C13.6457 42.5782 13.5876 42.438 13.5876 42.2919C13.5876 42.1457 13.6457 42.0056 13.749 41.9022C13.8524 41.7989 13.9925 41.7408 14.1387 41.7408H14.5166C14.6627 41.7408 14.8029 41.7989 14.9062 41.9022C15.0095 42.0056 15.0676 42.1457 15.0676 42.2919C15.0676 42.438 15.0095 42.5782 14.9062 42.6815C14.8029 42.7848 14.6627 42.8429 14.5166 42.8429Z" fill="white"/>
<path d="M17.6225 42.8429H16.1143C15.9681 42.8429 15.828 42.7848 15.7246 42.6815C15.6213 42.5782 15.5632 42.438 15.5632 42.2919C15.5632 42.1457 15.6213 42.0056 15.7246 41.9022C15.828 41.7989 15.9681 41.7408 16.1143 41.7408H17.6225C17.7686 41.7408 17.9088 41.7989 18.0121 41.9022C18.1155 42.0056 18.1735 42.1457 18.1735 42.2919C18.1735 42.438 18.1155 42.5782 18.0121 42.6815C17.9088 42.7848 17.7686 42.8429 17.6225 42.8429Z" fill="white"/>
<path d="M22.651 42.8429H19.0891C18.943 42.8429 18.8028 42.7848 18.6995 42.6815C18.5961 42.5782 18.5381 42.438 18.5381 42.2919C18.5381 42.1457 18.5961 42.0056 18.6995 41.9022C18.8028 41.7989 18.943 41.7408 19.0891 41.7408H22.651C22.7971 41.7408 22.9373 41.7989 23.0406 41.9022C23.144 42.0056 23.202 42.1457 23.202 42.2919C23.202 42.438 23.144 42.5782 23.0406 42.6815C22.9373 42.7848 22.7971 42.8429 22.651 42.8429Z" fill="white"/>
<path d="M15.9457 40.8158H14.1387C13.9925 40.8158 13.8524 40.7577 13.749 40.6544C13.6457 40.5511 13.5876 40.4109 13.5876 40.2648C13.5876 40.1186 13.6457 39.9785 13.749 39.8751C13.8524 39.7718 13.9925 39.7137 14.1387 39.7137H15.9457C16.0919 39.7137 16.232 39.7718 16.3354 39.8751C16.4387 39.9785 16.4968 40.1186 16.4968 40.2648C16.4968 40.4109 16.4387 40.5511 16.3354 40.6544C16.232 40.7577 16.0919 40.8158 15.9457 40.8158Z" fill="white"/>
<path d="M20.3015 40.8158H17.5432C17.3971 40.8158 17.2569 40.7577 17.1536 40.6544C17.0502 40.5511 16.9922 40.4109 16.9922 40.2648C16.9922 40.1186 17.0502 39.9785 17.1536 39.8751C17.2569 39.7718 17.3971 39.7137 17.5432 39.7137H20.3015C20.4477 39.7137 20.5878 39.7718 20.6912 39.8751C20.7945 39.9785 20.8525 40.1186 20.8525 40.2648C20.8525 40.4109 20.7945 40.5511 20.6912 40.6544C20.5878 40.7577 20.4477 40.8158 20.3015 40.8158Z" fill="white"/>
<path d="M22.6509 40.8158H21.7683C21.6222 40.8158 21.482 40.7577 21.3787 40.6544C21.2753 40.5511 21.2173 40.4109 21.2173 40.2648C21.2173 40.1186 21.2753 39.9785 21.3787 39.8751C21.482 39.7718 21.6222 39.7137 21.7683 39.7137H22.6509C22.7971 39.7137 22.9372 39.7718 23.0406 39.8751C23.1439 39.9785 23.202 40.1186 23.202 40.2648C23.202 40.4109 23.1439 40.5511 23.0406 40.6544C22.9372 40.7577 22.7971 40.8158 22.6509 40.8158Z" fill="white"/>
<path d="M15.9457 44.8699H14.1387C13.9925 44.8699 13.8524 44.8118 13.749 44.7085C13.6457 44.6051 13.5876 44.465 13.5876 44.3188C13.5876 44.1727 13.6457 44.0325 13.749 43.9292C13.8524 43.8259 13.9925 43.7678 14.1387 43.7678H15.9457C16.0919 43.7678 16.232 43.8259 16.3354 43.9292C16.4387 44.0325 16.4968 44.1727 16.4968 44.3188C16.4968 44.465 16.4387 44.6051 16.3354 44.7085C16.232 44.8118 16.0919 44.8699 15.9457 44.8699Z" fill="white"/>
<path d="M20.3015 44.8699H17.5432C17.3971 44.8699 17.2569 44.8118 17.1536 44.7085C17.0502 44.6051 16.9922 44.465 16.9922 44.3188C16.9922 44.1727 17.0502 44.0325 17.1536 43.9292C17.2569 43.8259 17.3971 43.7678 17.5432 43.7678H20.3015C20.4477 43.7678 20.5878 43.8259 20.6912 43.9292C20.7945 44.0325 20.8525 44.1727 20.8525 44.3188C20.8525 44.465 20.7945 44.6051 20.6912 44.7085C20.5878 44.8118 20.4477 44.8699 20.3015 44.8699Z" fill="white"/>
<path d="M22.6509 44.8699H21.7683C21.6222 44.8699 21.482 44.8118 21.3787 44.7085C21.2753 44.6051 21.2173 44.465 21.2173 44.3188C21.2173 44.1727 21.2753 44.0325 21.3787 43.9292C21.482 43.8259 21.6222 43.7678 21.7683 43.7678H22.6509C22.7971 43.7678 22.9372 43.8259 23.0406 43.9292C23.1439 44.0325 23.202 44.1727 23.202 44.3188C23.202 44.465 23.1439 44.6051 23.0406 44.7085C22.9372 44.8118 22.7971 44.8699 22.6509 44.8699Z" fill="white"/>
<path d="M14.5166 46.8968H14.1387C13.9925 46.8968 13.8524 46.8388 13.749 46.7355C13.6457 46.6321 13.5876 46.492 13.5876 46.3458C13.5876 46.1997 13.6457 46.0595 13.749 45.9562C13.8524 45.8529 13.9925 45.7948 14.1387 45.7948H14.5166C14.6627 45.7948 14.8029 45.8529 14.9062 45.9562C15.0095 46.0595 15.0676 46.1997 15.0676 46.3458C15.0676 46.492 15.0095 46.6321 14.9062 46.7355C14.8029 46.8388 14.6627 46.8968 14.5166 46.8968Z" fill="white"/>
<path d="M17.6225 46.8968H16.1143C15.9681 46.8968 15.828 46.8388 15.7246 46.7355C15.6213 46.6321 15.5632 46.492 15.5632 46.3458C15.5632 46.1997 15.6213 46.0595 15.7246 45.9562C15.828 45.8529 15.9681 45.7948 16.1143 45.7948H17.6225C17.7686 45.7948 17.9088 45.8529 18.0121 45.9562C18.1155 46.0595 18.1735 46.1997 18.1735 46.3458C18.1735 46.492 18.1155 46.6321 18.0121 46.7355C17.9088 46.8388 17.7686 46.8968 17.6225 46.8968Z" fill="white"/>
<path d="M22.651 46.8968H19.0891C18.943 46.8968 18.8028 46.8388 18.6995 46.7355C18.5961 46.6321 18.5381 46.492 18.5381 46.3458C18.5381 46.1997 18.5961 46.0595 18.6995 45.9562C18.8028 45.8529 18.943 45.7948 19.0891 45.7948H22.651C22.7971 45.7948 22.9373 45.8529 23.0406 45.9562C23.144 46.0595 23.202 46.1997 23.202 46.3458C23.202 46.492 23.144 46.6321 23.0406 46.7355C22.9373 46.8388 22.7971 46.8968 22.651 46.8968Z" fill="white"/>
</svg>
