<svg width="16" height="16" viewBox="0 0 16 16" fill="none" xmlns="http://www.w3.org/2000/svg">
<circle cx="8" cy="8" r="8" fill="#6DC235"/>
<path d="M11.4702 11.9869H10.2255L9.96471 11.4028H5.50551L5.24473 11.9869H4L5.27432 10.1594C5.02371 10.0888 4.81749 9.94853 4.65658 9.73855C4.49567 9.52766 4.41522 9.28558 4.41522 9.01142V4.8192C4.41522 4.65323 4.45868 4.49552 4.54561 4.34514C4.63254 4.19477 4.73888 4.05814 4.86373 3.93344C4.9895 3.80874 5.11804 3.70237 5.24935 3.61251C5.38159 3.52357 5.49534 3.45663 5.59244 3.4117C5.68861 3.36677 5.79496 3.31909 5.91056 3.26774C6.02615 3.2164 6.16487 3.17238 6.32578 3.13387C6.48668 3.09536 6.67349 3.06327 6.88526 3.03851C7.09703 3.01375 7.34486 3 7.62877 3C7.95058 3 8.23356 3.01467 8.4777 3.0431C8.72183 3.07152 8.93638 3.11003 9.11948 3.15771C9.30258 3.20539 9.46442 3.26133 9.60221 3.32184C9.74092 3.38236 9.86761 3.44471 9.98321 3.5089C10.0988 3.57308 10.2209 3.64644 10.3503 3.72896C10.4789 3.81149 10.5945 3.90593 10.6981 4.01138C10.8007 4.11683 10.8867 4.23603 10.9542 4.3699C11.0217 4.50377 11.0559 4.65415 11.0559 4.82011V9.01142C11.0559 9.28558 10.9736 9.52857 10.8099 9.73855C10.6463 9.94944 10.4382 10.0897 10.1876 10.1594L11.4702 11.9869ZM6.82792 3.6226C6.74469 3.6226 6.67349 3.65102 6.61523 3.70879C6.55697 3.76656 6.5283 3.83991 6.5283 3.92885C6.5283 4.01138 6.55697 4.08198 6.61523 4.13975C6.67349 4.19752 6.74377 4.22594 6.82792 4.22594H8.66172C8.74495 4.22594 8.81616 4.19752 8.87442 4.13975C8.93268 4.08198 8.96135 4.0123 8.96135 3.92885C8.96135 3.83991 8.93268 3.76656 8.87442 3.70879C8.81616 3.65102 8.74588 3.6226 8.66172 3.6226H6.82792ZM5.01354 6.61822H10.4474V4.8192H5.01354V6.61822ZM5.32241 9.72846C5.438 9.72846 5.53788 9.6872 5.62203 9.60376C5.70526 9.52124 5.7478 9.42221 5.7478 9.30667C5.7478 9.18564 5.70619 9.08294 5.62203 9.00042C5.53788 8.91789 5.43893 8.87571 5.32241 8.87571C5.20034 8.87571 5.09677 8.91698 5.01354 9.00042C4.93031 9.08294 4.88777 9.18564 4.88777 9.30667C4.88777 9.42129 4.92939 9.52032 5.01354 9.60376C5.09677 9.6872 5.20034 9.72846 5.32241 9.72846ZM9.68451 10.8095L9.41448 10.2062H6.05575L5.77554 10.8095H9.68451ZM9.71318 9.30759C9.71318 9.42221 9.75479 9.52124 9.83895 9.60468C9.92217 9.6872 10.0257 9.72938 10.1478 9.72938C10.2699 9.72938 10.3735 9.68812 10.4567 9.60468C10.5399 9.52215 10.5825 9.42312 10.5825 9.30759C10.5825 9.18656 10.5408 9.08386 10.4567 9.00134C10.3735 8.91881 10.2699 8.87663 10.1478 8.87663C10.0257 8.87663 9.92217 8.91789 9.83895 9.00134C9.75572 9.08478 9.71318 9.18656 9.71318 9.30759Z" fill="white"/>
</svg>
