<svg width="40" height="39" viewBox="0 0 40 39" fill="none" xmlns="http://www.w3.org/2000/svg">
<path d="M12.8694 0.184492C12.408 0.399903 11.8924 0.94607 11.7694 1.36926C11.7079 1.58467 11.677 2.70795 11.677 5.1462V8.6153H12.2923H12.9076V5.07667C12.9076 1.63812 12.9152 1.53041 13.0615 1.38413C13.2154 1.2302 13.3155 1.2302 18.1386 1.2302C22.9616 1.2302 23.0617 1.2302 23.2156 1.38413C23.3543 1.52238 23.3695 1.63812 23.3695 2.61511V3.69217H23.9848H24.6001V2.63078C24.6001 1.68474 24.5772 1.53845 24.4156 1.19243C24.2002 0.731061 23.6541 0.215438 23.2309 0.0924597C23.0155 0.0233355 21.5771 2.57492e-05 18.0923 2.57492e-05H13.254L12.8694 0.184492Z" fill="#34346F"/>
<path d="M20.2926 5.53848V6.15377H20.9079H21.5232V6.76906V7.38435H19.6769H17.8306V7.99964V8.61493H18.4459H19.0612V9.23022V9.84551H12.9079H6.7538V11.6918V13.5381H4.90753H3.06166V24.6149V35.6917H2.44637H1.83068V36.9227V38.1537H1.21539H0.600098V38.5769V39.0001H20.2926H39.9851V38.5769V38.1537H39.3698H38.7545V35.6921V33.2306H39.3698H39.9851V32.6153V32H39.3698H38.7545V29.5384V27.0769H39.3698H39.9851V26.4616V25.8463H39.3698H38.7545V23.3847V20.9231H39.3698H39.9851V20.3079V19.6926H39.3698H38.7545V17.231V14.7694H39.3698H39.9851V14.1542V13.5389H39.3698H38.7545V11.0773V8.61573H39.3698H39.9851V8.00044V7.38515H38.1388H36.2926V8.00044V8.61573H36.9078H37.5231V11.0773V13.5389H36.9078H36.2926V14.1542V14.7694H36.9078H37.5231V17.231V19.6926H36.9078H36.2926V20.3079V20.9231H36.9078H37.5231V23.3847V25.8463H36.9078H36.2926V26.4616V27.0769H36.9078H37.5231V29.5384V32H36.9078H36.2926V32.6153V33.2306H36.9078H37.5231V35.6921V38.1537H36.2921H35.062V22.1537V6.15377H34.4467H33.8314V7.38475V8.61573H32.6004H31.3694V7.38475V6.15377H30.7541H30.1388V22.1541V38.1541H25.2157H20.2926V35.6925V33.231H24.6004H28.9083V32.6157V32.0004H24.6004H20.2926V29.5388V27.0773H24.6004H28.9083V26.462V25.8467H24.6004H20.2926V23.3851V20.9235H24.6004H28.9083V20.3079V19.6926H24.6004H20.2926V17.231V14.7694H24.6004H28.9083V14.1542V13.5389H24.6004H20.2926V11.0773V8.61573H24.6004H28.9083V8.00044V7.38515H27.6773H26.4463V6.76986V6.15458H27.0616H27.6769V5.53848V4.92319H23.9843H20.2926V5.53848ZM25.2157 6.76906V7.38435H23.9847H22.7538V6.76906V6.15377H23.9847H25.2157V6.76906ZM33.831 10.4616V11.0769H32.6H31.369V10.4616V9.84632H32.6H33.831V10.4616ZM19.0616 12.3079V13.5389H18.4463H17.831V14.1542V14.7694H18.4463H19.0616V17.231V19.6926H18.4463H17.831V20.3079V20.9231H18.4463H19.0616V23.3847V25.8463H18.4463H17.831V26.4616V27.0769H18.4463H19.0616V29.5384V32H18.4463H17.831V32.6153V33.2306H18.4463H19.0616V34.4615V35.6925H16.6001H14.1385V36.3078V36.9231H16.6001H19.0616V37.5384V38.1537H15.9848H12.9079V35.6921V33.2306H13.5232H14.1385V32.6153V32H10.4463H6.75421V32.6153V33.2306H7.3695H7.98479V35.6921V38.1537H5.52322H3.06166V37.5384V36.9231H4.90793H6.75421V36.3078V35.6925H5.52322H4.29224V25.231V14.7694H10.4463H16.6001V14.1542V13.5389H12.2926H7.98479V12.3079V11.0769H13.5232H19.0616V12.3079ZM33.831 12.9232V13.5385H32.6H31.369V12.9232V12.3079H32.6H33.831V12.9232ZM33.831 15.3847V16H32.6H31.369V15.3847V14.7694H32.6H33.831V15.3847ZM33.831 17.8463V18.4616H32.6H31.369V17.8463V17.231H32.6H33.831V17.8463ZM33.831 20.3079V20.9231H32.6H31.369V20.3079V19.6926H32.6H33.831V20.3079ZM33.831 22.7694V23.3847H32.6H31.369V22.7694V22.1541H32.6H33.831V22.7694ZM33.831 25.231V25.8463H32.6H31.369V25.231V24.6157H32.6H33.831V25.231ZM33.831 27.6925V28.3078H32.6H31.369V27.6925V27.0773H32.6H33.831V27.6925ZM33.831 30.1541V30.7694H32.6H31.369V30.1541V29.5388H32.6H33.831V30.1541ZM33.831 32.6157V33.231H32.6H31.369V32.6157V32.0004H32.6H33.831V32.6157ZM11.6769 35.6925V38.1541H10.4463H9.21537V35.6925V33.231H10.4463H11.6773V35.6925H11.6769ZM33.831 35.0772V35.6925H32.6H31.369V35.0772V34.4619H32.6H33.831V35.0772ZM33.831 37.5388V38.1541H32.6H31.369V37.5388V36.9235H32.6H33.831V37.5388Z" fill="#34346F"/>
<path d="M6.75391 17.8463V18.4615H7.3692H7.98449V17.8463V17.231H7.3692H6.75391V17.8463Z" fill="#34346F"/>
<path d="M9.21533 17.8463V18.4615H9.83062H10.4463V17.8463V17.231H9.83102H9.21573V17.8463H9.21533Z" fill="#34346F"/>
<path d="M11.677 17.8463V18.4615H12.2923H12.9076V17.8463V17.231H12.2923H11.677V17.8463Z" fill="#34346F"/>
</svg>
